<svg width="51" height="54" viewBox="0 0 51 54" fill="none" xmlns="http://www.w3.org/2000/svg">
<path fill-rule="evenodd" clip-rule="evenodd" d="M16.1449 3.18117C18.5605 3.06378 19.3307 3.03769 25.4839 3.03769C31.6371 3.03769 32.4072 3.06595 34.8207 3.18117C37.2342 3.29639 38.8817 3.70292 40.3232 4.29206C41.8327 4.89424 43.2021 5.83556 44.3347 7.05297C45.4879 8.24647 46.3776 9.68998 46.9459 11.2857C47.506 12.8074 47.8891 14.5466 48.0003 17.0901C48.1115 19.6445 48.1362 20.4576 48.1362 26.9511C48.1362 33.4469 48.1094 34.26 48.0003 36.81C47.8911 39.3535 47.506 41.0927 46.9459 42.6144C46.3775 44.2103 45.4864 45.6562 44.3347 46.8515C43.2021 48.0689 41.8327 49.008 40.3232 49.608C38.8817 50.1994 37.2342 50.6037 34.8249 50.7211C32.4072 50.8385 31.6371 50.8646 25.4839 50.8646C19.3307 50.8646 18.5605 50.8363 16.1449 50.7211C13.7355 50.6059 12.0881 50.1994 10.6466 49.608C9.1349 49.008 7.76526 48.0673 6.63301 46.8515C5.48059 45.6573 4.58878 44.2121 4.01976 42.6166C3.46169 41.0949 3.07866 39.3557 2.96746 36.8122C2.85625 34.2578 2.83154 33.4447 2.83154 26.9511C2.83154 20.4554 2.85831 19.6423 2.96746 17.0944C3.0766 14.5466 3.46169 12.8074 4.01976 11.2857C4.58962 9.69015 5.48211 8.24498 6.63507 7.0508C7.76571 5.83448 9.13398 4.89303 10.6445 4.29206C12.086 3.70292 13.7335 3.29856 16.1429 3.18117H16.1449ZM34.6375 7.48559C32.2487 7.37037 31.532 7.34646 25.4839 7.34646C19.4357 7.34646 18.7191 7.37037 16.3303 7.48559C14.1206 7.59211 12.9221 7.98125 12.1231 8.30952C11.0667 8.74431 10.3109 9.25953 9.5181 10.0965C8.76655 10.8684 8.18816 11.808 7.82535 12.8466C7.5144 13.69 7.14578 14.9553 7.04488 17.2879C6.93573 19.8097 6.91308 20.5662 6.91308 26.9511C6.91308 33.336 6.93573 34.0926 7.04488 36.6143C7.14578 38.947 7.5144 40.2122 7.82535 41.0557C8.18779 42.0927 8.76645 43.034 9.5181 43.8058C10.2492 44.5993 11.1408 45.2101 12.1231 45.5928C12.9221 45.921 14.1206 46.3102 16.3303 46.4167C18.7191 46.5319 19.4336 46.5558 25.4839 46.5558C31.5341 46.5558 32.2487 46.5319 34.6375 46.4167C36.8471 46.3102 38.0456 45.921 38.8446 45.5928C39.901 45.158 40.6568 44.6427 41.4496 43.8058C42.2013 43.034 42.78 42.0927 43.1424 41.0557C43.4533 40.2122 43.822 38.947 43.9229 36.6143C44.032 34.0926 44.0547 33.336 44.0547 26.9511C44.0547 20.5662 44.032 19.8097 43.9229 17.2879C43.822 14.9553 43.4533 13.69 43.1424 12.8466C42.7305 11.7313 42.2425 10.9335 41.4496 10.0965C40.7184 9.30317 39.8284 8.69259 38.8446 8.30952C38.0456 7.98125 36.8471 7.59211 34.6375 7.48559V7.48559ZM22.5905 34.323C24.2064 35.0331 26.0057 35.1289 27.681 34.5941C29.3563 34.0594 30.8039 32.9271 31.7763 31.3909C32.7487 29.8546 33.1858 28.0096 33.0128 26.1709C32.8398 24.3323 32.0675 22.614 30.8278 21.3097C30.0375 20.476 29.0819 19.8376 28.0299 19.4405C26.9778 19.0434 25.8554 18.8974 24.7435 19.0132C23.6317 19.129 22.5579 19.5036 21.5996 20.11C20.6413 20.7164 19.8223 21.5396 19.2016 22.5203C18.5808 23.501 18.1737 24.6148 18.0097 25.7815C17.8456 26.9482 17.9286 28.1388 18.2527 29.2675C18.5768 30.3963 19.134 31.4351 19.8841 32.3093C20.6341 33.1835 21.5585 33.8712 22.5905 34.323ZM17.2508 18.2597C18.332 17.1183 19.6155 16.2129 21.0282 15.5952C22.4408 14.9775 23.9548 14.6596 25.4839 14.6596C27.0129 14.6596 28.5269 14.9775 29.9396 15.5952C31.3522 16.2129 32.6358 17.1183 33.717 18.2597C34.7981 19.4011 35.6558 20.7561 36.2409 22.2474C36.8261 23.7386 37.1272 25.337 37.1272 26.9511C37.1272 28.5653 36.8261 30.1636 36.2409 31.6549C35.6558 33.1462 34.7981 34.5012 33.717 35.6426C31.5334 37.9477 28.5719 39.2427 25.4839 39.2427C22.3959 39.2427 19.4343 37.9477 17.2508 35.6426C15.0672 33.3375 13.8405 30.2111 13.8405 26.9511C13.8405 23.6912 15.0672 20.5648 17.2508 18.2597V18.2597ZM39.7095 16.4901C39.9775 16.2233 40.1919 15.9024 40.3403 15.5465C40.4887 15.1906 40.5679 14.807 40.5732 14.4182C40.5786 14.0294 40.51 13.6434 40.3716 13.2831C40.2331 12.9228 40.0276 12.5955 39.7671 12.3205C39.5067 12.0456 39.1966 11.8286 38.8553 11.6824C38.514 11.5363 38.1484 11.4639 37.7801 11.4695C37.4118 11.4752 37.0484 11.5588 36.7112 11.7154C36.3741 11.8721 36.0702 12.0985 35.8174 12.3813C35.3259 12.9314 35.0568 13.662 35.0672 14.4182C35.0777 15.1743 35.3669 15.8963 35.8734 16.4311C36.3799 16.9658 37.0639 17.271 37.7801 17.2821C38.4963 17.2931 39.1885 17.009 39.7095 16.4901V16.4901Z" fill="#9747FF"/>
</svg>
