<svg width="50" height="53" viewBox="0 0 50 53" fill="none" xmlns="http://www.w3.org/2000/svg">
<path fill-rule="evenodd" clip-rule="evenodd" d="M36.3466 31.7027C35.733 31.3788 32.7243 29.8179 32.1642 29.6005C31.6041 29.3853 31.1963 29.2787 30.7865 29.9266C30.3788 30.5701 29.207 32.0266 28.8508 32.457C28.4925 32.8897 28.1362 32.9418 27.5246 32.6201C26.913 32.294 24.9402 31.6136 22.6029 29.4135C20.7845 27.7004 19.5551 25.5852 19.1988 24.9374C18.8426 24.2917 19.1597 23.9417 19.4665 23.6199C19.7425 23.3308 20.0781 22.8656 20.385 22.4895C20.6918 22.1112 20.7927 21.8417 20.9966 21.409C21.2025 20.9786 21.0996 20.6025 20.9451 20.2786C20.7927 19.9547 19.5695 16.7742 19.0588 15.4807C18.5625 14.222 18.058 14.3937 17.6832 14.372C17.3249 14.3546 16.9171 14.3502 16.5094 14.3502C16.1016 14.3502 15.4385 14.5111 14.8784 15.1589C14.3162 15.8046 12.7367 17.3677 12.7367 20.5482C12.7367 23.7265 14.9278 26.7983 15.2347 27.2309C15.5415 27.6613 19.5489 34.1875 25.6877 36.9854C27.1498 37.6506 28.2886 38.0484 29.1761 38.3441C30.6424 38.8376 31.9768 38.768 33.0312 38.6006C34.205 38.4158 36.6514 37.0376 37.1621 35.5288C37.6708 34.0201 37.6708 32.7266 37.5184 32.457C37.366 32.1875 36.9583 32.0266 36.3446 31.7027H36.3466ZM25.1811 47.7964H25.1729C21.5267 47.7971 17.9475 46.7624 14.8105 44.8007L14.0691 44.3355L6.3632 46.4703L8.42044 38.5398L7.9365 37.7267C5.89808 34.3013 4.81933 30.337 4.8249 26.2917C4.82902 14.4437 13.96 4.80441 25.1893 4.80441C30.6259 4.80441 35.7371 7.04357 39.5797 11.1045C41.4751 13.0971 42.9773 15.4667 43.9996 18.0761C45.0218 20.6856 45.5438 23.4832 45.5353 26.3069C45.5311 38.155 36.4002 47.7964 25.1811 47.7964V47.7964ZM42.504 8.01968C40.235 5.6086 37.5353 3.69686 34.5614 2.39524C31.5875 1.09361 28.3984 0.42799 25.179 0.436941C11.6824 0.436941 0.693936 12.035 0.689817 26.2896C0.683563 30.826 1.81085 35.284 3.95793 39.2137L0.483887 52.6117L13.4657 49.016C17.0569 51.0815 21.0812 52.1638 25.1708 52.1639H25.1811C38.6778 52.1639 49.6662 40.5659 49.6703 26.3091C49.6803 22.9118 49.052 19.5462 47.822 16.4068C46.5919 13.2675 44.7844 10.4168 42.504 8.01968" fill="#9747FF"/>
</svg>
