<svg width="24" height="24" viewBox="0 0 24 24" fill="none" xmlns="http://www.w3.org/2000/svg">
<g opacity="0.5">
<path fill-rule="evenodd" clip-rule="evenodd" d="M1.25 10.5002C1.25 5.39163 5.39139 1.25024 10.5 1.25024C15.6086 1.25024 19.75 5.39163 19.75 10.5002C19.75 15.6089 15.6086 19.7502 10.5 19.7502C5.39139 19.7502 1.25 15.6089 1.25 10.5002ZM10.5 2.75024C6.21981 2.75024 2.75 6.22006 2.75 10.5002C2.75 14.7804 6.21981 18.2502 10.5 18.2502C14.7802 18.2502 18.25 14.7804 18.25 10.5002C18.25 6.22006 14.7802 2.75024 10.5 2.75024Z" fill="url(#paint0_linear_1_2084)"/>
<path fill-rule="evenodd" clip-rule="evenodd" d="M7.14156 6.64145C8.00036 5.78271 9.18888 5.25024 10.5003 5.25024C11.8118 5.25024 13.0003 5.78271 13.8591 6.64146C14.1519 6.93436 14.1519 7.40923 13.8591 7.70212C13.5662 7.99502 13.0913 7.99502 12.7984 7.70212C12.2095 7.11318 11.398 6.75024 10.5003 6.75024C9.60267 6.75024 8.79119 7.11318 8.20219 7.70214C7.90928 7.99503 7.43441 7.99501 7.14153 7.70211C6.84864 7.4092 6.84866 6.93433 7.14156 6.64145Z" fill="url(#paint1_linear_1_2084)"/>
<path fill-rule="evenodd" clip-rule="evenodd" d="M16.081 16.0808C16.3739 15.7879 16.8488 15.7879 17.1417 16.0808L21.3843 20.3234C21.6772 20.6163 21.6772 21.0912 21.3843 21.3841C21.0914 21.677 20.6165 21.677 20.3236 21.3841L16.081 17.1414C15.7881 16.8485 15.7881 16.3736 16.081 16.0808Z" fill="url(#paint2_linear_1_2084)"/>
</g>
<defs>
<linearGradient id="paint0_linear_1_2084" x1="1.25" y1="1.25024" x2="19.9755" y2="1.48142" gradientUnits="userSpaceOnUse">
<stop stop-color="#FF8A00"/>
<stop offset="1" stop-color="#FF0000"/>
</linearGradient>
<linearGradient id="paint1_linear_1_2084" x1="6.92188" y1="5.25024" x2="14.1592" y2="5.4896" gradientUnits="userSpaceOnUse">
<stop stop-color="#FF8A00"/>
<stop offset="1" stop-color="#FF0000"/>
</linearGradient>
<linearGradient id="paint2_linear_1_2084" x1="15.8613" y1="15.8611" x2="21.674" y2="15.9328" gradientUnits="userSpaceOnUse">
<stop stop-color="#FF8A00"/>
<stop offset="1" stop-color="#FF0000"/>
</linearGradient>
</defs>
</svg>
