<svg width="25" height="25" viewBox="0 0 25 25" fill="none" xmlns="http://www.w3.org/2000/svg">
<path d="M12.5 12.5V7.5L16.6667 10V15L12.5 12.5Z" fill="#D501F8"/>
<path d="M12.5007 12.5L8.33398 15V10L12.5007 7.5V12.5Z" fill="#C30DF5"/>
<path d="M16.6673 15L12.5007 17.5L8.33398 15L12.5007 12.5L16.6673 15Z" fill="#A521EF"/>
<path d="M20.832 12.5V7.5L24.9987 10V15L20.832 12.5Z" fill="#A521EF"/>
<path d="M24.9993 15L20.8327 17.5L16.666 15L20.8327 12.5L24.9993 15Z" fill="#D501F8"/>
<path d="M8.33268 20L4.16602 22.5V17.5L8.33268 15V20Z" fill="#D501F8"/>
<path d="M12.4993 22.5L8.33268 25L4.16602 22.5L8.33268 20L12.4993 22.5Z" fill="#A521EF"/>
<path d="M8.33333 10L4.16667 12.5L0 10L4.16667 7.5L8.33333 10Z" fill="#D501F8"/>
<path d="M4.16667 17.5V12.5L0 10V15L4.16667 17.5Z" fill="#A521EF"/>
<path d="M16.666 25V20L20.8327 17.5V22.5L16.666 25Z" fill="#A521EF"/>
<path d="M16.6667 25V20L12.5 17.5V22.5L16.6667 25Z" fill="#D501F8"/>
<path d="M20.8333 2.5L16.6667 5L12.5 2.5L16.6667 0L20.8333 2.5Z" fill="#A521EF"/>
<path d="M16.666 10V5L20.8327 2.5V7.5L16.666 10Z" fill="#D501F8"/>
<path d="M8.33203 5V0L12.4987 2.5V7.5L8.33203 5Z" fill="#D501F8"/>
<path d="M8.33268 5L4.16602 7.5V2.5L8.33268 0V5Z" fill="#A521EF"/>
</svg>
