<svg width="50" height="50" viewBox="0 0 50 50" fill="none" xmlns="http://www.w3.org/2000/svg">
<path d="M10.4168 25H10.4377H10.4168ZM25.0002 25H25.021H25.0002ZM39.5835 25H39.6043H39.5835ZM12.5002 25C12.5002 25.5525 12.2807 26.0824 11.89 26.4731C11.4993 26.8638 10.9694 27.0833 10.4168 27.0833C9.86429 27.0833 9.33439 26.8638 8.94369 26.4731C8.55299 26.0824 8.3335 25.5525 8.3335 25C8.3335 24.4474 8.55299 23.9175 8.94369 23.5268C9.33439 23.1361 9.86429 22.9166 10.4168 22.9166C10.9694 22.9166 11.4993 23.1361 11.89 23.5268C12.2807 23.9175 12.5002 24.4474 12.5002 25V25ZM27.0835 25C27.0835 25.5525 26.864 26.0824 26.4733 26.4731C26.0826 26.8638 25.5527 27.0833 25.0002 27.0833C24.4476 27.0833 23.9177 26.8638 23.527 26.4731C23.1363 26.0824 22.9168 25.5525 22.9168 25C22.9168 24.4474 23.1363 23.9175 23.527 23.5268C23.9177 23.1361 24.4476 22.9166 25.0002 22.9166C25.5527 22.9166 26.0826 23.1361 26.4733 23.5268C26.864 23.9175 27.0835 24.4474 27.0835 25V25ZM41.6668 25C41.6668 25.5525 41.4473 26.0824 41.0566 26.4731C40.6659 26.8638 40.136 27.0833 39.5835 27.0833C39.031 27.0833 38.5011 26.8638 38.1104 26.4731C37.7197 26.0824 37.5002 25.5525 37.5002 25C37.5002 24.4474 37.7197 23.9175 38.1104 23.5268C38.5011 23.1361 39.031 22.9166 39.5835 22.9166C40.136 22.9166 40.6659 23.1361 41.0566 23.5268C41.4473 23.9175 41.6668 24.4474 41.6668 25V25Z" stroke="#838383" stroke-width="2" stroke-linecap="round" stroke-linejoin="round"/>
</svg>
