<svg width="648" height="622" viewBox="0 0 648 622" fill="none" xmlns="http://www.w3.org/2000/svg">
<g filter="url(#filter0_d_1_435)">
<path d="M269.171 572.032C258.079 582.13 200.57 541.246 143.311 478.355C86.0519 415.465 48.5075 356.403 61.8174 344.285C68.3515 338.336 120.066 384.496 177.325 447.387C234.584 510.278 275.705 566.083 269.171 572.032Z" fill="#FF8A00"/>
</g>
<path d="M430.797 8.34589C435.289 4.25596 442.246 4.58206 446.336 9.07425L640.225 222.032C644.315 226.525 643.989 233.482 639.496 237.572L277.255 567.376C269.265 574.651 257.547 575.914 248.599 569.855C227.746 555.736 187.969 525.92 144.723 478.421C101.478 430.923 75.5134 388.531 63.4065 366.448C58.2116 356.973 60.565 345.425 68.5555 338.15L430.797 8.34589Z" fill="#FED03D"/>
<path d="M430.664 11.1713C435.156 7.08141 442.113 7.4075 446.203 11.8997L637.399 221.9C641.489 226.392 641.163 233.349 636.671 237.439L275.815 565.982C267.843 573.24 256.163 574.518 247.226 568.489C226.564 554.551 187.316 525.204 144.723 478.421C102.13 431.639 76.5822 389.818 64.638 367.943C59.4714 358.481 61.8362 346.972 69.8079 339.714L430.664 11.1713Z" fill="#FF8A00"/>
<g filter="url(#filter1_d_1_435)">
<path d="M207.778 435.575C207.504 434.942 207.178 434.418 206.801 434.003C206.424 433.589 206.009 433.349 205.556 433.281C205.104 433.214 204.725 433.318 204.422 433.595C203.987 433.99 203.856 434.533 204.028 435.221L204.55 437.416C204.836 438.645 204.62 439.586 203.902 440.24C203.309 440.78 202.644 441 201.909 440.9C201.174 440.799 200.457 440.366 199.76 439.6C199.062 438.834 198.575 438.021 198.298 437.163L199.259 436.762C199.526 437.554 199.907 438.223 200.403 438.768C200.906 439.32 201.384 439.63 201.837 439.697C202.289 439.765 202.667 439.66 202.971 439.384C203.406 438.988 203.537 438.446 203.365 437.757L202.843 435.562C202.557 434.333 202.773 433.392 203.491 432.738C204.084 432.198 204.749 431.978 205.484 432.079C206.219 432.179 206.91 432.585 207.558 433.296C207.997 433.779 208.391 434.412 208.737 435.194L207.778 435.575Z" fill="#FFBC09"/>
<path d="M208.586 436.255L209.372 435.538L213.915 440.528L213.128 441.244L211.262 439.195L204.896 444.991L204.085 444.101L210.452 438.304L208.586 436.255Z" fill="#FFBC09"/>
<path d="M210.895 451.58L212.479 448.642L210.019 445.94L206.946 447.243L206.107 446.321L215.616 442.397L216.587 443.463L211.79 452.564L210.895 451.58ZM213 447.695L214.757 444.447L215.186 443.754L215.148 443.713L214.418 444.075L211.02 445.521L213 447.695Z" fill="#FFBC09"/>
<path d="M216.029 451.375L213.12 454.024L212.309 453.134L219.462 446.621L221.178 448.505C221.819 449.209 222.16 449.965 222.201 450.773C222.25 451.575 221.939 452.28 221.27 452.89C220.786 453.329 220.26 453.576 219.689 453.628C219.125 453.674 218.569 453.549 218.022 453.253C217.934 453.989 217.519 455.585 216.777 458.041L215.796 456.964C216.579 454.497 216.996 453.006 217.046 452.493L216.029 451.375ZM216.795 450.678L217.699 451.672C218.133 452.148 218.583 452.407 219.05 452.449C219.524 452.497 219.975 452.327 220.402 451.937C220.83 451.548 221.042 451.115 221.038 450.639C221.04 450.17 220.825 449.697 220.391 449.221L219.486 448.227L216.795 450.678Z" fill="#FFBC09"/>
<path d="M222.906 451.983L223.693 451.267L228.236 456.257L227.449 456.973L225.583 454.923L219.216 460.72L218.405 459.83L224.772 454.033L222.906 451.983Z" fill="#FFBC09"/>
</g>
<g filter="url(#filter2_d_1_435)">
<path d="M239.14 442.498C236.689 444.728 234.03 445.797 225.278 436.185C216.863 426.942 217.839 424.024 220.289 421.793C223.987 418.428 228.946 422.389 234.151 428.106C239.357 433.823 242.467 439.468 239.14 442.498Z" fill="black"/>
<g filter="url(#filter3_i_1_435)">
<path d="M238.097 442.095C236.259 443.768 234.144 444.438 226.017 435.512C218.203 426.929 218.755 424.543 220.593 422.869C223.366 420.345 227.839 424.144 232.672 429.453C237.506 434.761 240.592 439.823 238.097 442.095Z" fill="#1B1B1B"/>
</g>
</g>
<g filter="url(#filter4_d_1_435)">
<path d="M174.117 398.604C173.842 397.97 173.517 397.446 173.14 397.032C172.763 396.617 172.348 396.377 171.895 396.309C171.443 396.242 171.064 396.346 170.761 396.623C170.326 397.019 170.195 397.561 170.367 398.249L170.889 400.444C171.175 401.673 170.959 402.615 170.241 403.268C169.648 403.808 168.983 404.028 168.248 403.928C167.513 403.827 166.796 403.394 166.099 402.628C165.401 401.862 164.914 401.049 164.637 400.191L165.598 399.79C165.864 400.582 166.246 401.251 166.742 401.796C167.245 402.348 167.723 402.658 168.175 402.725C168.628 402.793 169.006 402.688 169.31 402.412C169.745 402.016 169.876 401.474 169.703 400.785L169.182 398.59C168.896 397.361 169.112 396.42 169.83 395.766C170.423 395.226 171.088 395.006 171.823 395.107C172.558 395.207 173.249 395.613 173.896 396.324C174.336 396.807 174.729 397.44 175.076 398.222L174.117 398.604Z" fill="#FFBC09"/>
<path d="M169.218 405.804L176.371 399.291L180.198 403.494L179.232 404.014L176.395 400.898L174.034 403.047L176.711 405.987L175.955 406.675L173.279 403.735L170.815 405.978L174.01 409.487L173.223 410.204L169.218 405.804Z" fill="#FFBC09"/>
<path d="M173.979 411.033L181.132 404.521L181.943 405.411L175.576 411.207L178.338 414.24L177.551 414.957L173.979 411.033Z" fill="#FFBC09"/>
<path d="M178.022 415.474L185.175 408.961L189.002 413.164L188.036 413.684L185.199 410.568L182.839 412.717L185.516 415.657L184.76 416.345L182.083 413.405L179.619 415.648L182.814 419.158L182.028 419.874L178.022 415.474Z" fill="#FFBC09"/>
<path d="M186.804 418.444C186.01 419.167 185.553 419.961 185.433 420.828C185.32 421.701 185.587 422.493 186.234 423.204C186.887 423.922 187.701 424.462 188.675 424.825L187.992 425.655C186.95 425.19 186.09 424.585 185.411 423.84C184.732 423.094 184.333 422.322 184.211 421.524C184.104 420.726 184.201 419.981 184.505 419.288C184.808 418.595 185.263 417.972 185.871 417.419C187.03 416.364 188.287 415.838 189.641 415.842C190.995 415.846 192.185 416.41 193.209 417.535C193.68 418.053 194.096 418.697 194.456 419.467L193.505 419.878C193.217 419.27 192.856 418.728 192.422 418.252C191.655 417.41 190.772 417.008 189.773 417.047C188.773 417.086 187.784 417.552 186.804 418.444Z" fill="#FFBC09"/>
<path d="M193.978 420.211L194.765 419.494L199.308 424.484L198.521 425.2L196.655 423.151L190.288 428.947L189.478 428.057L195.844 422.26L193.978 420.211Z" fill="#FFBC09"/>
</g>
<g filter="url(#filter5_d_1_435)">
<path d="M207.498 407.744C205.048 409.975 202.388 411.044 193.636 401.431C185.221 392.188 186.198 389.27 188.648 387.04C192.345 383.674 197.304 387.635 202.51 393.352C207.715 399.07 210.826 404.714 207.498 407.744Z" fill="black"/>
<g filter="url(#filter6_i_1_435)">
<path d="M206.455 407.341C204.617 409.014 202.503 409.684 194.376 400.758C186.562 392.175 187.114 389.789 188.951 388.116C191.725 385.592 196.197 389.39 201.031 394.699C205.864 400.008 208.951 405.069 206.455 407.341Z" fill="#1B1B1B"/>
</g>
</g>
<circle cx="254.47" cy="477.902" r="2.5" transform="rotate(47.6836 254.47 477.902)" fill="#1B1B1B"/>
<circle cx="247.815" cy="483.961" r="2.5" transform="rotate(47.6836 247.815 483.961)" fill="#FF0000"/>
<circle cx="241.16" cy="490.02" r="2.5" transform="rotate(47.6836 241.16 490.02)" fill="#1B1B1B"/>
<circle cx="234.505" cy="496.079" r="2.5" transform="rotate(47.6836 234.505 496.079)" fill="#FF0000"/>
<circle cx="227.85" cy="502.138" r="2.5" transform="rotate(47.6836 227.85 502.138)" fill="#1B1B1B"/>
<circle cx="221.195" cy="508.197" r="2.5" transform="rotate(47.6836 221.195 508.197)" fill="#FF0000"/>
<circle cx="267.184" cy="478.498" r="2.5" transform="rotate(47.6836 267.184 478.498)" fill="#1B1B1B"/>
<circle cx="260.529" cy="484.557" r="2.5" transform="rotate(47.6836 260.529 484.557)" fill="#FF0000"/>
<circle cx="253.874" cy="490.616" r="2.5" transform="rotate(47.6836 253.874 490.616)" fill="#1B1B1B"/>
<circle cx="247.219" cy="496.675" r="2.5" transform="rotate(47.6836 247.219 496.675)" fill="#FF0000"/>
<circle cx="240.564" cy="502.734" r="2.5" transform="rotate(47.6836 240.564 502.734)" fill="#1B1B1B"/>
<circle cx="227.254" cy="514.852" r="2.5" transform="rotate(47.6836 227.254 514.852)" fill="#1B1B1B"/>
<circle cx="233.909" cy="508.793" r="2.5" transform="rotate(47.6836 233.909 508.793)" fill="#FF0000"/>
<circle cx="220.599" cy="520.911" r="2.5" transform="rotate(47.6836 220.599 520.911)" fill="#FF0000"/>
<circle cx="297.623" cy="523.814" r="2.5" transform="rotate(47.6836 297.623 523.814)" fill="#1B1B1B"/>
<circle cx="304.277" cy="517.755" r="2.5" transform="rotate(47.6836 304.277 517.755)" fill="#FF0000"/>
<circle cx="284.312" cy="535.932" r="2.5" transform="rotate(47.6836 284.312 535.932)" fill="#1B1B1B"/>
<circle cx="290.967" cy="529.873" r="2.5" transform="rotate(47.6836 290.967 529.873)" fill="#FF0000"/>
<circle cx="271.002" cy="548.05" r="2.5" transform="rotate(47.6836 271.002 548.05)" fill="#1B1B1B"/>
<circle cx="277.658" cy="541.991" r="2.5" transform="rotate(47.6836 277.658 541.991)" fill="#FF0000"/>
<circle cx="268.067" cy="489.866" r="2.5" transform="rotate(47.6836 268.067 489.866)" fill="#1B1B1B"/>
<circle cx="274.722" cy="483.807" r="2.5" transform="rotate(47.6836 274.722 483.807)" fill="#FF0000"/>
<circle cx="254.757" cy="501.984" r="2.5" transform="rotate(47.6836 254.757 501.984)" fill="#1B1B1B"/>
<circle cx="261.412" cy="495.925" r="2.5" transform="rotate(47.6836 261.412 495.925)" fill="#FF0000"/>
<circle cx="241.447" cy="514.102" r="2.5" transform="rotate(47.6836 241.447 514.102)" fill="#1B1B1B"/>
<circle cx="228.137" cy="526.22" r="2.5" transform="rotate(47.6836 228.137 526.22)" fill="#1B1B1B"/>
<circle cx="248.102" cy="508.043" r="2.5" transform="rotate(47.6836 248.102 508.043)" fill="#FF0000"/>
<circle cx="234.792" cy="520.161" r="2.5" transform="rotate(47.6836 234.792 520.161)" fill="#FF0000"/>
<circle cx="282.259" cy="489.115" r="2.5" transform="rotate(47.6836 282.259 489.115)" fill="#1B1B1B"/>
<circle cx="275.604" cy="495.174" r="2.5" transform="rotate(47.6836 275.604 495.174)" fill="#FF0000"/>
<circle cx="268.949" cy="501.233" r="2.5" transform="rotate(47.6836 268.949 501.233)" fill="#1B1B1B"/>
<circle cx="262.294" cy="507.292" r="2.5" transform="rotate(47.6836 262.294 507.292)" fill="#FF0000"/>
<circle cx="255.64" cy="513.351" r="2.5" transform="rotate(47.6836 255.64 513.351)" fill="#1B1B1B"/>
<circle cx="242.33" cy="525.469" r="2.5" transform="rotate(47.6836 242.33 525.469)" fill="#1B1B1B"/>
<circle cx="248.984" cy="519.41" r="2.5" transform="rotate(47.6836 248.984 519.41)" fill="#FF0000"/>
<circle cx="235.675" cy="531.528" r="2.5" transform="rotate(47.6836 235.675 531.528)" fill="#FF0000"/>
<circle cx="283.143" cy="500.483" r="2.5" transform="rotate(47.6836 283.143 500.483)" fill="#1B1B1B"/>
<circle cx="289.797" cy="494.424" r="2.5" transform="rotate(47.6836 289.797 494.424)" fill="#FF0000"/>
<circle cx="269.833" cy="512.601" r="2.5" transform="rotate(47.6836 269.833 512.601)" fill="#1B1B1B"/>
<circle cx="276.487" cy="506.542" r="2.5" transform="rotate(47.6836 276.487 506.542)" fill="#FF0000"/>
<circle cx="256.522" cy="524.719" r="2.5" transform="rotate(47.6836 256.522 524.719)" fill="#1B1B1B"/>
<circle cx="243.213" cy="536.837" r="2.5" transform="rotate(47.6836 243.213 536.837)" fill="#1B1B1B"/>
<circle cx="263.178" cy="518.66" r="2.5" transform="rotate(47.6836 263.178 518.66)" fill="#FF0000"/>
<circle cx="249.868" cy="530.778" r="2.5" transform="rotate(47.6836 249.868 530.778)" fill="#FF0000"/>
<circle cx="297.335" cy="499.732" r="2.5" transform="rotate(47.6836 297.335 499.732)" fill="#1B1B1B"/>
<circle cx="290.681" cy="505.791" r="2.5" transform="rotate(47.6836 290.681 505.791)" fill="#FF0000"/>
<circle cx="284.025" cy="511.85" r="2.5" transform="rotate(47.6836 284.025 511.85)" fill="#1B1B1B"/>
<circle cx="277.371" cy="517.909" r="2.5" transform="rotate(47.6836 277.371 517.909)" fill="#FF0000"/>
<circle cx="270.716" cy="523.968" r="2.5" transform="rotate(47.6836 270.716 523.968)" fill="#1B1B1B"/>
<circle cx="257.406" cy="536.086" r="2.5" transform="rotate(47.6836 257.406 536.086)" fill="#1B1B1B"/>
<circle cx="264.061" cy="530.027" r="2.5" transform="rotate(47.6836 264.061 530.027)" fill="#FF0000"/>
<circle cx="250.751" cy="542.145" r="2.5" transform="rotate(47.6836 250.751 542.145)" fill="#FF0000"/>
<circle cx="298.218" cy="511.1" r="2.5" transform="rotate(47.6836 298.218 511.1)" fill="#1B1B1B"/>
<circle cx="304.873" cy="505.041" r="2.5" transform="rotate(47.6836 304.873 505.041)" fill="#FF0000"/>
<circle cx="284.908" cy="523.218" r="2.5" transform="rotate(47.6836 284.908 523.218)" fill="#1B1B1B"/>
<circle cx="291.563" cy="517.159" r="2.5" transform="rotate(47.6836 291.563 517.159)" fill="#FF0000"/>
<circle cx="271.598" cy="535.336" r="2.5" transform="rotate(47.6836 271.598 535.336)" fill="#1B1B1B"/>
<circle cx="258.289" cy="547.454" r="2.5" transform="rotate(47.6836 258.289 547.454)" fill="#1B1B1B"/>
<circle cx="278.253" cy="529.277" r="2.5" transform="rotate(47.6836 278.253 529.277)" fill="#FF0000"/>
<circle cx="264.943" cy="541.395" r="2.5" transform="rotate(47.6836 264.943 541.395)" fill="#FF0000"/>
<g filter="url(#filter7_d_1_435)">
<circle cx="311.859" cy="401.309" r="19.5" transform="rotate(47.6836 311.859 401.309)" fill="black"/>
<circle cx="311.859" cy="401.309" r="18.5" transform="rotate(47.6836 311.859 401.309)" fill="#535355"/>
<circle cx="311.859" cy="401.309" r="16.5" transform="rotate(47.6836 311.859 401.309)" fill="#1B1B1B"/>
<g opacity="0.2" filter="url(#filter8_d_1_435)">
<path d="M312.429 390.647L312.362 390.573L312.288 390.64L298.609 403.095L298.535 403.162L298.602 403.236L302.641 407.673L302.663 407.697L302.694 407.703C304.108 408.008 306.188 408.036 307.817 407.115C308.635 406.653 309.337 405.953 309.783 404.933C310.217 403.939 310.404 402.649 310.223 400.989C311.514 401.151 313.323 401.128 314.698 400.377C315.411 399.988 316.009 399.401 316.352 398.544C316.696 397.689 316.782 396.573 316.493 395.131L316.487 395.104L316.469 395.084L312.429 390.647ZM303.197 405.758L301.609 404.014L306.268 399.773L307.856 401.517C307.766 403.233 307.109 404.309 306.228 404.949C305.348 405.588 304.231 405.8 303.197 405.758ZM308.264 397.955L312.923 393.714L314.181 395.096C314.308 395.958 314.207 396.654 313.96 397.213C313.709 397.777 313.304 398.208 312.815 398.53C311.847 399.167 310.555 399.371 309.515 399.329L308.264 397.955Z" stroke="white" stroke-width="0.2"/>
</g>
<path d="M302.716 387.796C302.659 387.711 302.681 387.597 302.766 387.54C306.054 385.37 310.011 384.446 313.923 384.939C317.897 385.44 321.552 387.369 324.208 390.367C326.864 393.364 328.339 397.225 328.358 401.23C328.377 405.173 326.984 408.991 324.433 411.993C324.367 412.07 324.25 412.078 324.174 412.012V412.012C324.097 411.945 324.089 411.828 324.155 411.75C326.646 408.816 328.008 405.085 327.989 401.232C327.971 397.317 326.528 393.542 323.932 390.611C321.335 387.681 317.762 385.795 313.877 385.305C310.054 384.823 306.186 385.726 302.973 387.846C302.888 387.902 302.774 387.88 302.716 387.796V387.796Z" fill="white"/>
</g>
<g filter="url(#filter9_d_1_435)">
<circle cx="363.542" cy="431.339" r="19.5" transform="rotate(47.6836 363.542 431.339)" fill="black"/>
<circle cx="363.542" cy="431.339" r="18.5" transform="rotate(47.6836 363.542 431.339)" fill="#535355"/>
<circle cx="363.542" cy="431.339" r="16.5" transform="rotate(47.6836 363.542 431.339)" fill="#1B1B1B"/>
<g opacity="0.3" filter="url(#filter10_d_1_435)">
<path fill-rule="evenodd" clip-rule="evenodd" d="M350.123 432.197L352.006 434.264C352.038 434.3 352.09 434.307 352.131 434.283L356.361 431.74C356.402 431.716 356.454 431.724 356.486 431.759L358.732 434.226C358.764 434.261 358.767 434.314 358.739 434.352L355.812 438.326C355.784 438.364 355.787 438.417 355.819 438.452L357.701 440.52C357.744 440.567 357.818 440.563 357.856 440.512L369.831 424.254C369.859 424.216 369.856 424.163 369.824 424.127L367.578 421.66C367.546 421.625 367.493 421.618 367.453 421.642L350.146 432.044C350.092 432.076 350.081 432.15 350.123 432.197ZM364.997 426.445L358.719 430.322C358.666 430.354 358.655 430.428 358.698 430.474L360.223 432.15C360.264 432.194 360.334 432.193 360.373 432.147L365.125 426.595C365.199 426.508 365.094 426.385 364.997 426.445Z" stroke="white" stroke-width="0.2"/>
</g>
<path d="M354.4 417.826C354.343 417.741 354.365 417.626 354.45 417.57C357.737 415.4 361.695 414.475 365.607 414.969C369.58 415.47 373.236 417.399 375.892 420.397C378.548 423.394 380.023 427.255 380.042 431.26C380.061 435.203 378.667 439.02 376.117 442.022C376.051 442.1 375.934 442.108 375.857 442.041V442.041C375.78 441.975 375.772 441.858 375.838 441.78C378.33 438.846 379.692 435.115 379.673 431.262C379.654 427.346 378.212 423.572 375.615 420.641C373.019 417.711 369.445 415.825 365.561 415.335C361.737 414.853 357.87 415.756 354.657 417.876C354.572 417.932 354.457 417.91 354.4 417.826V417.826Z" fill="white"/>
</g>
<g filter="url(#filter11_d_1_435)">
<path d="M234.559 253.278C237.009 251.047 240.804 251.225 243.035 253.675L253.807 265.506C256.037 267.957 255.86 271.751 253.409 273.982L203.867 319.088C201.417 321.319 197.622 321.141 195.391 318.691L184.619 306.86C182.389 304.41 182.566 300.615 185.017 298.384L234.559 253.278Z" fill="black"/>
<path d="M186.275 271.543C184.044 269.093 184.222 265.298 186.672 263.067L198.503 252.296C200.953 250.065 204.748 250.243 206.979 252.693L252.085 302.236C254.316 304.686 254.138 308.481 251.688 310.711L239.857 321.483C237.406 323.714 233.612 323.536 231.381 321.086L186.275 271.543Z" fill="black"/>
</g>
<g filter="url(#filter12_i_1_435)">
<path d="M233.879 256.311C236.143 254.249 238.281 252.91 240.314 255.143L251.477 267.404C253.511 269.637 251.977 271.64 249.713 273.702L203.933 315.382C201.669 317.443 199.532 318.783 197.498 316.55L186.335 304.288C184.302 302.055 185.835 300.052 188.1 297.991L233.879 256.311Z" fill="#1B1B1B"/>
<path d="M190.23 271.281C188.196 269.048 186.905 266.913 189.169 264.851L200.101 254.898C202.366 252.836 203.763 252.17 205.797 254.403L249.599 302.513C251.632 304.746 250.838 306.076 248.574 308.137L237.641 318.091C235.377 320.152 233.372 318.667 231.339 316.433L190.23 271.281Z" fill="#1B1B1B"/>
</g>
<path opacity="0.2" d="M238.473 277.635L242.369 265.599C242.608 264.863 241.955 264.146 241.2 264.315L228.852 267.068C228.103 267.235 227.813 268.15 228.33 268.718L236.782 278C237.299 278.568 238.236 278.365 238.473 277.635Z" fill="#1E1E1E" stroke="white" stroke-width="0.5"/>
<path opacity="0.2" d="M209.64 303.885L197.292 306.639C196.537 306.808 195.885 306.091 196.123 305.355L200.02 293.319C200.256 292.588 201.194 292.386 201.71 292.954L210.162 302.236C210.679 302.804 210.39 303.718 209.64 303.885Z" fill="#1E1E1E" stroke="white" stroke-width="0.5"/>
<path opacity="0.2" d="M211.404 266.25L199.368 262.354C198.632 262.116 197.916 262.768 198.084 263.523L200.838 275.871C201.005 276.62 201.919 276.91 202.487 276.393L211.77 267.941C212.337 267.424 212.135 266.487 211.404 266.25Z" fill="#1E1E1E" stroke="white" stroke-width="0.5"/>
<path opacity="0.2" d="M237.655 295.083L240.409 307.431C240.577 308.186 239.861 308.838 239.125 308.6L227.088 304.703C226.358 304.467 226.155 303.529 226.723 303.012L236.006 294.561C236.573 294.044 237.488 294.333 237.655 295.083Z" fill="#1E1E1E" stroke="white" stroke-width="0.5"/>
<path d="M428.258 32.2949C431.934 28.9486 437.626 29.2154 440.972 32.8908L616.01 225.145C619.357 228.82 619.09 234.512 615.415 237.859L453.396 385.37C449.079 389.299 442.582 389.539 438.093 385.807C422.817 373.109 386.865 341.838 345.111 295.977C303.357 250.117 275.586 211.397 264.372 195C261.077 190.182 261.923 183.735 266.239 179.806L428.258 32.2949Z" fill="#0C1212"/>
<path d="M428.192 33.7075C431.867 30.3611 437.559 30.628 440.906 34.3034L614.598 225.078C617.944 228.754 617.677 234.446 614.002 237.792L454.12 383.358C449.801 387.29 443.295 387.524 438.806 383.786C423.612 371.134 387.982 340.095 346.589 294.631C305.197 249.167 277.626 210.79 266.45 194.479C263.149 189.66 263.991 183.205 268.31 179.273L428.192 33.7075Z" fill="white"/>
<path d="M428.125 35.1203C431.801 31.774 437.493 32.0408 440.839 35.7162L613.858 225.752C617.204 229.427 616.937 235.119 613.262 238.466L454.091 383.384C449.772 387.316 443.264 387.549 438.775 383.81C423.62 371.187 388.141 340.269 346.926 295.001C305.711 249.732 278.247 211.517 267.097 195.247C263.795 190.429 264.635 183.971 268.954 180.038L428.125 35.1203Z" fill="#283136"/>
<path d="M445.045 81.9257C446.271 80.8102 448.168 80.8992 449.283 82.1243L567.771 212.265C568.886 213.491 568.797 215.388 567.572 216.503L448.523 324.893C448.114 325.264 447.482 325.235 447.11 324.826L325.93 191.727C325.558 191.319 325.587 190.687 325.996 190.315L445.045 81.9257Z" fill="black"/>
<path d="M441.756 91.6818C442.981 90.5663 444.879 90.6553 445.994 91.8804L559.096 216.106C560.211 217.331 560.123 219.229 558.897 220.344L447.982 321.328C447.573 321.7 446.941 321.67 446.569 321.261L330.774 194.078C330.403 193.67 330.432 193.037 330.841 192.665L441.756 91.6818Z" fill="#161817"/>
<defs>
<filter id="filter0_d_1_435" x="0.130371" y="273.769" width="328.723" height="347.793" filterUnits="userSpaceOnUse" color-interpolation-filters="sRGB">
<feFlood flood-opacity="0" result="BackgroundImageFix"/>
<feColorMatrix in="SourceAlpha" type="matrix" values="0 0 0 0 0 0 0 0 0 0 0 0 0 0 0 0 0 0 127 0" result="hardAlpha"/>
<feOffset dy="-11"/>
<feGaussianBlur stdDeviation="29.5"/>
<feColorMatrix type="matrix" values="0 0 0 0 0 0 0 0 0 0 0 0 0 0 0 0 0 0 0.31 0"/>
<feBlend mode="normal" in2="BackgroundImageFix" result="effect1_dropShadow_1_435"/>
<feBlend mode="normal" in="SourceGraphic" in2="effect1_dropShadow_1_435" result="shape"/>
</filter>
<filter id="filter1_d_1_435" x="196.298" y="430.055" width="33.937" height="32.665" filterUnits="userSpaceOnUse" color-interpolation-filters="sRGB">
<feFlood flood-opacity="0" result="BackgroundImageFix"/>
<feColorMatrix in="SourceAlpha" type="matrix" values="0 0 0 0 0 0 0 0 0 0 0 0 0 0 0 0 0 0 127 0" result="hardAlpha"/>
<feOffset/>
<feGaussianBlur stdDeviation="1"/>
<feColorMatrix type="matrix" values="0 0 0 0 0 0 0 0 0 0 0 0 0 0 0 0 0 0 0.08 0"/>
<feBlend mode="normal" in2="BackgroundImageFix" result="effect1_dropShadow_1_435"/>
<feBlend mode="normal" in="SourceGraphic" in2="effect1_dropShadow_1_435" result="shape"/>
</filter>
<filter id="filter2_d_1_435" x="214.563" y="416.555" width="29.9531" height="31.4597" filterUnits="userSpaceOnUse" color-interpolation-filters="sRGB">
<feFlood flood-opacity="0" result="BackgroundImageFix"/>
<feColorMatrix in="SourceAlpha" type="matrix" values="0 0 0 0 0 0 0 0 0 0 0 0 0 0 0 0 0 0 127 0" result="hardAlpha"/>
<feOffset/>
<feGaussianBlur stdDeviation="2"/>
<feColorMatrix type="matrix" values="0 0 0 0 0 0 0 0 0 0 0 0 0 0 0 0 0 0 0.25 0"/>
<feBlend mode="normal" in2="BackgroundImageFix" result="effect1_dropShadow_1_435"/>
<feBlend mode="normal" in="SourceGraphic" in2="effect1_dropShadow_1_435" result="shape"/>
</filter>
<filter id="filter3_i_1_435" x="219.438" y="422.07" width="19.5439" height="22.0457" filterUnits="userSpaceOnUse" color-interpolation-filters="sRGB">
<feFlood flood-opacity="0" result="BackgroundImageFix"/>
<feBlend mode="normal" in="SourceGraphic" in2="BackgroundImageFix" result="shape"/>
<feColorMatrix in="SourceAlpha" type="matrix" values="0 0 0 0 0 0 0 0 0 0 0 0 0 0 0 0 0 0 127 0" result="hardAlpha"/>
<feOffset dy="1"/>
<feGaussianBlur stdDeviation="1"/>
<feComposite in2="hardAlpha" operator="arithmetic" k2="-1" k3="1"/>
<feColorMatrix type="matrix" values="0 0 0 0 1 0 0 0 0 1 0 0 0 0 1 0 0 0 0.2 0"/>
<feBlend mode="normal" in2="shape" result="effect1_innerShadow_1_435"/>
</filter>
<filter id="filter4_d_1_435" x="162.637" y="393.083" width="38.6709" height="37.8641" filterUnits="userSpaceOnUse" color-interpolation-filters="sRGB">
<feFlood flood-opacity="0" result="BackgroundImageFix"/>
<feColorMatrix in="SourceAlpha" type="matrix" values="0 0 0 0 0 0 0 0 0 0 0 0 0 0 0 0 0 0 127 0" result="hardAlpha"/>
<feOffset/>
<feGaussianBlur stdDeviation="1"/>
<feColorMatrix type="matrix" values="0 0 0 0 0 0 0 0 0 0 0 0 0 0 0 0 0 0 0.08 0"/>
<feBlend mode="normal" in2="BackgroundImageFix" result="effect1_dropShadow_1_435"/>
<feBlend mode="normal" in="SourceGraphic" in2="effect1_dropShadow_1_435" result="shape"/>
</filter>
<filter id="filter5_d_1_435" x="182.922" y="381.802" width="29.9531" height="31.4597" filterUnits="userSpaceOnUse" color-interpolation-filters="sRGB">
<feFlood flood-opacity="0" result="BackgroundImageFix"/>
<feColorMatrix in="SourceAlpha" type="matrix" values="0 0 0 0 0 0 0 0 0 0 0 0 0 0 0 0 0 0 127 0" result="hardAlpha"/>
<feOffset/>
<feGaussianBlur stdDeviation="2"/>
<feColorMatrix type="matrix" values="0 0 0 0 0 0 0 0 0 0 0 0 0 0 0 0 0 0 0.25 0"/>
<feBlend mode="normal" in2="BackgroundImageFix" result="effect1_dropShadow_1_435"/>
<feBlend mode="normal" in="SourceGraphic" in2="effect1_dropShadow_1_435" result="shape"/>
</filter>
<filter id="filter6_i_1_435" x="187.797" y="387.316" width="19.5439" height="22.0457" filterUnits="userSpaceOnUse" color-interpolation-filters="sRGB">
<feFlood flood-opacity="0" result="BackgroundImageFix"/>
<feBlend mode="normal" in="SourceGraphic" in2="BackgroundImageFix" result="shape"/>
<feColorMatrix in="SourceAlpha" type="matrix" values="0 0 0 0 0 0 0 0 0 0 0 0 0 0 0 0 0 0 127 0" result="hardAlpha"/>
<feOffset dy="1"/>
<feGaussianBlur stdDeviation="1"/>
<feComposite in2="hardAlpha" operator="arithmetic" k2="-1" k3="1"/>
<feColorMatrix type="matrix" values="0 0 0 0 1 0 0 0 0 1 0 0 0 0 1 0 0 0 0.2 0"/>
<feBlend mode="normal" in2="shape" result="effect1_innerShadow_1_435"/>
</filter>
<filter id="filter7_d_1_435" x="290.358" y="379.809" width="47.0005" height="47.0002" filterUnits="userSpaceOnUse" color-interpolation-filters="sRGB">
<feFlood flood-opacity="0" result="BackgroundImageFix"/>
<feColorMatrix in="SourceAlpha" type="matrix" values="0 0 0 0 0 0 0 0 0 0 0 0 0 0 0 0 0 0 127 0" result="hardAlpha"/>
<feOffset dx="2" dy="2"/>
<feGaussianBlur stdDeviation="2"/>
<feColorMatrix type="matrix" values="0 0 0 0 0 0 0 0 0 0 0 0 0 0 0 0 0 0 0.25 0"/>
<feBlend mode="normal" in2="BackgroundImageFix" result="effect1_dropShadow_1_435"/>
<feBlend mode="normal" in="SourceGraphic" in2="effect1_dropShadow_1_435" result="shape"/>
</filter>
<filter id="filter8_d_1_435" x="298.144" y="390.182" width="18.874" height="18.0623" filterUnits="userSpaceOnUse" color-interpolation-filters="sRGB">
<feFlood flood-opacity="0" result="BackgroundImageFix"/>
<feColorMatrix in="SourceAlpha" type="matrix" values="0 0 0 0 0 0 0 0 0 0 0 0 0 0 0 0 0 0 127 0" result="hardAlpha"/>
<feOffset/>
<feGaussianBlur stdDeviation="0.125"/>
<feColorMatrix type="matrix" values="0 0 0 0 1 0 0 0 0 1 0 0 0 0 1 0 0 0 0.3 0"/>
<feBlend mode="normal" in2="BackgroundImageFix" result="effect1_dropShadow_1_435"/>
<feBlend mode="normal" in="SourceGraphic" in2="effect1_dropShadow_1_435" result="shape"/>
</filter>
<filter id="filter9_d_1_435" x="342.042" y="409.839" width="47.0005" height="47.0002" filterUnits="userSpaceOnUse" color-interpolation-filters="sRGB">
<feFlood flood-opacity="0" result="BackgroundImageFix"/>
<feColorMatrix in="SourceAlpha" type="matrix" values="0 0 0 0 0 0 0 0 0 0 0 0 0 0 0 0 0 0 127 0" result="hardAlpha"/>
<feOffset dx="2" dy="2"/>
<feGaussianBlur stdDeviation="2"/>
<feColorMatrix type="matrix" values="0 0 0 0 0 0 0 0 0 0 0 0 0 0 0 0 0 0 0.25 0"/>
<feBlend mode="normal" in2="BackgroundImageFix" result="effect1_dropShadow_1_435"/>
<feBlend mode="normal" in="SourceGraphic" in2="effect1_dropShadow_1_435" result="shape"/>
</filter>
<filter id="filter10_d_1_435" x="345.997" y="421.528" width="27.9531" height="27.1248" filterUnits="userSpaceOnUse" color-interpolation-filters="sRGB">
<feFlood flood-opacity="0" result="BackgroundImageFix"/>
<feColorMatrix in="SourceAlpha" type="matrix" values="0 0 0 0 0 0 0 0 0 0 0 0 0 0 0 0 0 0 127 0" result="hardAlpha"/>
<feOffset dy="4"/>
<feGaussianBlur stdDeviation="2"/>
<feColorMatrix type="matrix" values="0 0 0 0 0 0 0 0 0 0 0 0 0 0 0 0 0 0 0.25 0"/>
<feBlend mode="normal" in2="BackgroundImageFix" result="effect1_dropShadow_1_435"/>
<feBlend mode="normal" in="SourceGraphic" in2="effect1_dropShadow_1_435" result="shape"/>
</filter>
<filter id="filter11_d_1_435" x="181.056" y="248.732" width="80.314" height="80.314" filterUnits="userSpaceOnUse" color-interpolation-filters="sRGB">
<feFlood flood-opacity="0" result="BackgroundImageFix"/>
<feColorMatrix in="SourceAlpha" type="matrix" values="0 0 0 0 0 0 0 0 0 0 0 0 0 0 0 0 0 0 127 0" result="hardAlpha"/>
<feOffset dx="2" dy="2"/>
<feGaussianBlur stdDeviation="2"/>
<feColorMatrix type="matrix" values="0 0 0 0 0 0 0 0 0 0 0 0 0 0 0 0 0 0 0.25 0"/>
<feBlend mode="normal" in2="BackgroundImageFix" result="effect1_dropShadow_1_435"/>
<feBlend mode="normal" in="SourceGraphic" in2="effect1_dropShadow_1_435" result="shape"/>
</filter>
<filter id="filter12_i_1_435" x="185.385" y="253.011" width="67.0415" height="66.0625" filterUnits="userSpaceOnUse" color-interpolation-filters="sRGB">
<feFlood flood-opacity="0" result="BackgroundImageFix"/>
<feBlend mode="normal" in="SourceGraphic" in2="BackgroundImageFix" result="shape"/>
<feColorMatrix in="SourceAlpha" type="matrix" values="0 0 0 0 0 0 0 0 0 0 0 0 0 0 0 0 0 0 127 0" result="hardAlpha"/>
<feOffset/>
<feGaussianBlur stdDeviation="3.5"/>
<feComposite in2="hardAlpha" operator="arithmetic" k2="-1" k3="1"/>
<feColorMatrix type="matrix" values="0 0 0 0 1 0 0 0 0 1 0 0 0 0 1 0 0 0 0.4 0"/>
<feBlend mode="normal" in2="shape" result="effect1_innerShadow_1_435"/>
</filter>
</defs>
</svg>
