<svg width="211" height="113" viewBox="0 0 211 113" fill="none" xmlns="http://www.w3.org/2000/svg">
<rect x="0.5" y="68.5" width="44" height="44" rx="7.5" stroke="url(#paint0_linear_1_1591)"/>
<g clip-path="url(#clip0_1_1591)">
<path fill-rule="evenodd" clip-rule="evenodd" d="M13.0556 80.75C12.8907 80.75 12.75 80.8855 12.75 81.0614V100.939C12.75 101.114 12.8907 101.25 13.0556 101.25H32.9445C33.1093 101.25 33.25 101.114 33.25 100.939V81.0614C33.25 80.8855 33.1093 80.75 32.9445 80.75H13.0556ZM11.25 81.0614C11.25 80.0649 12.0545 79.25 13.0556 79.25H32.9445C33.9455 79.25 34.75 80.0649 34.75 81.0614V100.939C34.75 101.935 33.9455 102.75 32.9445 102.75H13.0556C12.0545 102.75 11.25 101.935 11.25 100.939V81.0614Z" fill="#1F1D2B"/>
<path fill-rule="evenodd" clip-rule="evenodd" d="M30.3304 87.9435H28.1534H27.8961C27.2211 87.9435 26.6739 88.4907 26.6739 89.1657V91.6109H30.3304L29.7949 95.2763H26.6739V102H22.6529V95.2763H19.333V91.6109H22.61L22.6529 88.1317L22.6409 86.8847C22.624 85.1238 24.0378 83.6827 25.7986 83.6658C25.8088 83.6657 25.819 83.6656 25.8292 83.6656H30.3304V87.9435Z" fill="#1F1D2B"/>
</g>
<rect x="83.5" y="68.5" width="44" height="44" rx="7.5" stroke="url(#paint1_linear_1_1591)"/>
<path fill-rule="evenodd" clip-rule="evenodd" d="M96.25 86C96.25 83.3766 98.3766 81.25 101 81.25H111C113.623 81.25 115.75 83.3766 115.75 86V96C115.75 98.6234 113.623 100.75 111 100.75H101C98.3766 100.75 96.25 98.6234 96.25 96V86ZM101 82.75C99.2051 82.75 97.75 84.2051 97.75 86V96C97.75 97.7949 99.2051 99.25 101 99.25H111C112.795 99.25 114.25 97.7949 114.25 96V86C114.25 84.2051 112.795 82.75 111 82.75H101Z" fill="#1F1D2B"/>
<path fill-rule="evenodd" clip-rule="evenodd" d="M101.25 91C101.25 88.3766 103.377 86.25 106 86.25C108.623 86.25 110.75 88.3766 110.75 91C110.75 93.6234 108.623 95.75 106 95.75C103.377 95.75 101.25 93.6234 101.25 91ZM106 87.75C104.205 87.75 102.75 89.2051 102.75 91C102.75 92.7949 104.205 94.25 106 94.25C107.795 94.25 109.25 92.7949 109.25 91C109.25 89.2051 107.795 87.75 106 87.75Z" fill="#1F1D2B"/>
<path d="M111.5 86.5C112.052 86.5 112.5 86.0523 112.5 85.5C112.5 84.9477 112.052 84.5 111.5 84.5C110.948 84.5 110.5 84.9477 110.5 85.5C110.5 86.0523 110.948 86.5 111.5 86.5Z" fill="#1F1D2B"/>
<rect x="166.5" y="68.5" width="44" height="44" rx="7.5" stroke="url(#paint2_linear_1_1591)"/>
<path d="M187.68 88.57C184.735 88.4279 182.689 89.4777 181.54 91.7192C179.816 95.0815 181.241 100.583 186.99 100.583C192.739 100.583 192.906 95.0277 192.906 94.4457C192.906 94.0577 192.906 91.8882 192.906 87.9373C194.135 88.7162 195.172 89.185 196.016 89.3438C196.86 89.5027 197.396 89.5731 197.625 89.555V86.3171C196.845 86.223 196.17 86.0437 195.6 85.7791C194.746 85.3821 193.052 84.2806 193.052 82.666C193.054 82.6739 193.054 82.2575 193.052 81.4166H189.493C189.483 89.3247 189.483 93.6677 189.493 94.4457C189.509 95.6127 188.604 97.2452 186.768 97.2452C184.933 97.2452 184.027 95.6141 184.027 94.5619C184.027 93.9178 184.248 92.9842 185.163 92.2929C185.705 91.8829 186.458 91.7192 187.68 91.7192C187.68 91.3414 187.68 90.2917 187.68 88.57Z" stroke="#1F1D2B" stroke-width="1.5" stroke-linejoin="round"/>
<rect x="0.5" y="0.5" width="44" height="44" rx="7.5" stroke="url(#paint3_linear_1_1591)"/>
<path d="M31.7097 14.6545C31.7097 14.6545 33.6523 13.897 33.4904 15.7366C33.4365 16.4942 32.9508 19.1454 32.573 22.0131L31.278 30.5079C31.278 30.5079 31.17 31.7524 30.1987 31.9688C29.2273 32.1852 27.7704 31.2113 27.5005 30.9949C27.2847 30.8326 23.4534 28.3977 22.1043 27.2074C21.7265 26.8827 21.2948 26.2335 22.1582 25.476L27.8244 20.0653C28.4719 19.416 29.1194 17.9009 26.4213 19.7406L18.8666 24.8808C18.8666 24.8808 18.0032 25.4219 16.3843 24.9349L12.8767 23.8527C12.8767 23.8527 11.5816 23.0411 13.7941 22.2295C19.1904 19.6864 25.8278 17.0893 31.7097 14.6545Z" fill="#1F1D2B"/>
<rect x="83.5" y="0.5" width="44" height="44" rx="7.5" stroke="url(#paint4_linear_1_1591)"/>
<path fill-rule="evenodd" clip-rule="evenodd" d="M113.168 15.6854C112.69 15.0298 112.116 14.5209 111.438 14.1888C110.674 13.814 109.824 13.6871 108.915 13.7784C107.447 13.9258 106.423 14.7441 105.837 15.9452C105.337 16.9712 105.163 18.2564 105.222 19.632C103.858 20.1606 102.654 19.8743 101.587 19.1931C100.366 18.4137 99.3506 17.1235 98.6365 15.9596C98.4792 15.7033 98.1841 15.5657 97.8867 15.61C97.5893 15.6542 97.3471 15.8719 97.2714 16.1629C96.7716 18.0828 96.2363 20.5631 97.2973 23.3192C97.9049 24.8976 99.1823 26.2101 101.018 27.2928C99.1935 28.1109 97.7478 28.3554 96.6405 28.1443C96.2785 28.0753 95.92 28.2796 95.7947 28.6262C95.6695 28.9729 95.8147 29.3591 96.1372 29.5374C96.16 29.55 96.1863 29.5647 96.216 29.5812C96.815 29.9146 98.797 31.0177 101.256 31.6952C103.817 32.4008 107.06 32.6897 109.807 30.973C114.902 27.7896 114.868 22.3947 114.852 19.8257C114.852 19.7573 114.851 19.6908 114.851 19.6265C114.922 19.5034 115.01 19.3759 115.123 19.2142C115.128 19.2065 115.134 19.1988 115.139 19.191C115.286 18.9823 115.466 18.7249 115.632 18.4106C115.991 17.7314 116.25 16.8508 116.25 15.4719C116.25 15.1739 116.074 14.9042 115.801 14.7848C115.528 14.6653 115.21 14.7188 114.991 14.921C114.288 15.5702 113.697 15.7612 113.168 15.6854ZM110.778 15.5357C110.3 15.3015 109.738 15.2033 109.065 15.2709C108.159 15.3619 107.563 15.8269 107.185 16.6025C106.786 17.4213 106.63 18.6034 106.751 20.0399C106.777 20.3447 106.615 20.6346 106.343 20.7726C104.232 21.8397 102.317 21.4391 100.779 20.4574C99.8299 19.8512 99.0166 19.0223 98.3537 18.1793C98.1023 19.6075 98.0658 21.1402 98.6971 22.7803C99.2464 24.2071 100.606 25.5138 102.983 26.6339C103.238 26.7544 103.405 27.0086 103.413 27.2912C103.42 27.5738 103.269 27.8369 103.02 27.9717C101.726 28.6732 100.51 29.1787 99.3813 29.4595C100.056 29.7402 100.827 30.021 101.654 30.249C104.066 30.9134 106.796 31.0859 109.013 29.7009C113.378 26.9733 113.361 22.386 113.351 19.7852C113.351 19.6669 113.35 19.5527 113.35 19.443C113.35 19.3312 113.375 19.2208 113.424 19.1199C113.565 18.8228 113.743 18.5698 113.89 18.3597L113.896 18.352C114.051 18.1307 114.184 17.94 114.306 17.7102C114.41 17.5123 114.512 17.2725 114.592 16.9588C113.926 17.2303 113.225 17.286 112.503 17.0704C112.334 17.0198 112.187 16.9109 112.09 16.7631C111.699 16.1655 111.258 15.7707 110.778 15.5357Z" fill="#1F1D2B"/>
<rect x="166.5" y="0.5" width="44" height="44" rx="7.5" stroke="url(#paint5_linear_1_1591)"/>
<path d="M182.532 16.2072C185.303 16.0691 187.459 16 188.999 16C190.539 16 192.696 16.0691 195.469 16.2073C196.97 16.2821 198.184 17.4559 198.309 18.9536C198.436 20.4706 198.499 21.8067 198.499 22.9619C198.499 24.1313 198.434 25.486 198.304 27.0261C198.179 28.5052 196.992 29.6706 195.51 29.7675C193.14 29.9225 190.969 30 188.999 30C187.029 30 184.859 29.9225 182.49 29.7675C181.009 29.6707 179.822 28.506 179.696 27.0275C179.565 25.4759 179.499 24.1207 179.499 22.9619C179.499 21.817 179.563 20.4805 179.692 18.9522C179.818 17.4551 181.031 16.282 182.532 16.2072Z" stroke="#1F1D2B" stroke-width="1.5" stroke-linejoin="round"/>
<path d="M187.5 20.8046V25.203C187.5 25.4397 187.692 25.6316 187.929 25.6316C188.013 25.6316 188.095 25.6069 188.165 25.5605L191.464 23.3803C191.661 23.2498 191.715 22.9839 191.585 22.7864C191.554 22.7392 191.513 22.6986 191.467 22.6671L188.168 20.4489C187.971 20.3169 187.705 20.369 187.573 20.5655C187.525 20.6362 187.5 20.7194 187.5 20.8046Z" stroke="#1F1D2B" stroke-width="1.5" stroke-linejoin="round"/>
<defs>
<linearGradient id="paint0_linear_1_1591" x1="0" y1="68" x2="45.5486" y2="68.5623" gradientUnits="userSpaceOnUse">
<stop stop-color="#73E0B5"/>
<stop offset="1" stop-color="#5B68DF"/>
</linearGradient>
<linearGradient id="paint1_linear_1_1591" x1="83" y1="68" x2="128.549" y2="68.5623" gradientUnits="userSpaceOnUse">
<stop stop-color="#73E0B5"/>
<stop offset="1" stop-color="#5B68DF"/>
</linearGradient>
<linearGradient id="paint2_linear_1_1591" x1="166" y1="68" x2="211.549" y2="68.5623" gradientUnits="userSpaceOnUse">
<stop stop-color="#73E0B5"/>
<stop offset="1" stop-color="#5B68DF"/>
</linearGradient>
<linearGradient id="paint3_linear_1_1591" x1="0" y1="0" x2="45.5486" y2="0.562329" gradientUnits="userSpaceOnUse">
<stop stop-color="#73E0B5"/>
<stop offset="1" stop-color="#5B68DF"/>
</linearGradient>
<linearGradient id="paint4_linear_1_1591" x1="83" y1="0" x2="128.549" y2="0.562329" gradientUnits="userSpaceOnUse">
<stop stop-color="#73E0B5"/>
<stop offset="1" stop-color="#5B68DF"/>
</linearGradient>
<linearGradient id="paint5_linear_1_1591" x1="166" y1="0" x2="211.549" y2="0.562329" gradientUnits="userSpaceOnUse">
<stop stop-color="#73E0B5"/>
<stop offset="1" stop-color="#5B68DF"/>
</linearGradient>
<clipPath id="clip0_1_1591">
<rect width="24" height="24" fill="white" transform="translate(11 79)"/>
</clipPath>
</defs>
</svg>
