<svg width="1437" height="1083" viewBox="0 0 1437 1083" fill="none" xmlns="http://www.w3.org/2000/svg">
<path d="M714.7 0.000244141L1193.4 1082.59H236L714.7 0.000244141Z" fill="url(#paint0_diamond_1_1984)"/>
<path d="M714.7 1082.59L236 0.000247501L1193.4 0.000264684L714.7 1082.59Z" fill="url(#paint1_diamond_1_1984)"/>
<path d="M478.7 0.000244141L957.4 1082.59H0L478.7 0.000244141Z" fill="url(#paint2_diamond_1_1984)"/>
<path d="M478.7 1082.59L0.000383692 0.000247501L957.401 0.000264684L478.7 1082.59Z" fill="url(#paint3_diamond_1_1984)"/>
<path d="M957.399 0.000244141L1436.1 1082.59H478.699L957.399 0.000244141Z" fill="url(#paint4_diamond_1_1984)"/>
<path d="M957.399 1082.59L478.7 0.000247501L1436.1 0.000264684L957.399 1082.59Z" fill="url(#paint5_diamond_1_1984)"/>
<defs>
<radialGradient id="paint0_diamond_1_1984" cx="0" cy="0" r="1" gradientUnits="userSpaceOnUse" gradientTransform="translate(714.7 0.000244141) rotate(90) scale(1082.59 957.4)">
<stop stop-color="white"/>
<stop offset="1" stop-color="#2AD5AB" stop-opacity="0.53"/>
</radialGradient>
<radialGradient id="paint1_diamond_1_1984" cx="0" cy="0" r="1" gradientUnits="userSpaceOnUse" gradientTransform="translate(714.7 1082.59) rotate(-90) scale(1082.59 957.4)">
<stop stop-color="white"/>
<stop offset="1" stop-color="#2AD5AB" stop-opacity="0.53"/>
</radialGradient>
<radialGradient id="paint2_diamond_1_1984" cx="0" cy="0" r="1" gradientUnits="userSpaceOnUse" gradientTransform="translate(478.7 0.000244141) rotate(90) scale(1082.59 957.4)">
<stop stop-color="white"/>
<stop offset="1" stop-color="#2AD5AB" stop-opacity="0.53"/>
</radialGradient>
<radialGradient id="paint3_diamond_1_1984" cx="0" cy="0" r="1" gradientUnits="userSpaceOnUse" gradientTransform="translate(478.7 1082.59) rotate(-90) scale(1082.59 957.4)">
<stop stop-color="white"/>
<stop offset="1" stop-color="#2AD5AB" stop-opacity="0.53"/>
</radialGradient>
<radialGradient id="paint4_diamond_1_1984" cx="0" cy="0" r="1" gradientUnits="userSpaceOnUse" gradientTransform="translate(957.399 0.000244141) rotate(90) scale(1082.59 957.4)">
<stop stop-color="white"/>
<stop offset="1" stop-color="#2AD5AB" stop-opacity="0.53"/>
</radialGradient>
<radialGradient id="paint5_diamond_1_1984" cx="0" cy="0" r="1" gradientUnits="userSpaceOnUse" gradientTransform="translate(957.399 1082.59) rotate(-90) scale(1082.59 957.4)">
<stop stop-color="white"/>
<stop offset="1" stop-color="#2AD5AB" stop-opacity="0.53"/>
</radialGradient>
</defs>
</svg>
