<svg width="211" height="113" viewBox="0 0 211 113" fill="none" xmlns="http://www.w3.org/2000/svg">
<rect x="0.5" y="68.5002" width="44" height="44" rx="7.5" stroke="url(#paint0_linear_1_2121)"/>
<g clip-path="url(#clip0_1_2121)">
<path fill-rule="evenodd" clip-rule="evenodd" d="M13.0556 80.7502C12.8907 80.7502 12.75 80.8858 12.75 81.0616V100.939C12.75 101.115 12.8907 101.25 13.0556 101.25H32.9445C33.1093 101.25 33.25 101.115 33.25 100.939V81.0616C33.25 80.8858 33.1093 80.7502 32.9445 80.7502H13.0556ZM11.25 81.0616C11.25 80.0651 12.0545 79.2502 13.0556 79.2502H32.9445C33.9455 79.2502 34.75 80.0651 34.75 81.0616V100.939C34.75 101.935 33.9455 102.75 32.9445 102.75H13.0556C12.0545 102.75 11.25 101.935 11.25 100.939V81.0616Z" fill="#1F1D2B"/>
<path fill-rule="evenodd" clip-rule="evenodd" d="M30.3314 87.9438H28.1543H27.8971C27.2221 87.9438 26.6749 88.491 26.6749 89.166V91.6112H30.3314L29.7958 95.2766H26.6749V102H22.6539V95.2766H19.334V91.6112H22.611L22.6539 88.132L22.6419 86.885C22.625 85.1241 24.0387 83.683 25.7995 83.6661C25.8097 83.666 25.8199 83.6659 25.8302 83.6659H30.3314V87.9438Z" fill="#1F1D2B"/>
</g>
<rect x="83.5" y="68.5002" width="44" height="44" rx="7.5" stroke="url(#paint1_linear_1_2121)"/>
<path fill-rule="evenodd" clip-rule="evenodd" d="M96.25 86.0002C96.25 83.3769 98.3766 81.2502 101 81.2502H111C113.623 81.2502 115.75 83.3769 115.75 86.0002V96.0002C115.75 98.6236 113.623 100.75 111 100.75H101C98.3766 100.75 96.25 98.6236 96.25 96.0002V86.0002ZM101 82.7502C99.2051 82.7502 97.75 84.2053 97.75 86.0002V96.0002C97.75 97.7952 99.2051 99.2502 101 99.2502H111C112.795 99.2502 114.25 97.7952 114.25 96.0002V86.0002C114.25 84.2053 112.795 82.7502 111 82.7502H101Z" fill="#1F1D2B"/>
<path fill-rule="evenodd" clip-rule="evenodd" d="M101.25 91.0002C101.25 88.3769 103.377 86.2502 106 86.2502C108.623 86.2502 110.75 88.3769 110.75 91.0002C110.75 93.6236 108.623 95.7502 106 95.7502C103.377 95.7502 101.25 93.6236 101.25 91.0002ZM106 87.7502C104.205 87.7502 102.75 89.2053 102.75 91.0002C102.75 92.7952 104.205 94.2502 106 94.2502C107.795 94.2502 109.25 92.7952 109.25 91.0002C109.25 89.2053 107.795 87.7502 106 87.7502Z" fill="#1F1D2B"/>
<path d="M111.5 86.5002C112.052 86.5002 112.5 86.0525 112.5 85.5002C112.5 84.9479 112.052 84.5002 111.5 84.5002C110.948 84.5002 110.5 84.9479 110.5 85.5002C110.5 86.0525 110.948 86.5002 111.5 86.5002Z" fill="#1F1D2B"/>
<rect x="166.5" y="68.5002" width="44" height="44" rx="7.5" stroke="url(#paint2_linear_1_2121)"/>
<path d="M187.679 88.5702C184.734 88.4282 182.688 89.4779 181.539 91.7195C179.815 95.0818 181.24 100.584 186.989 100.584C192.738 100.584 192.905 95.028 192.905 94.446C192.905 94.0579 192.905 91.8885 192.905 87.9375C194.134 88.7164 195.171 89.1853 196.015 89.3441C196.859 89.5029 197.395 89.5733 197.624 89.5553V86.3174C196.844 86.2233 196.169 86.0439 195.599 85.7793C194.745 85.3824 193.051 84.2808 193.051 82.6663C193.053 82.6742 193.053 82.2577 193.051 81.4169H189.492C189.482 89.3249 189.482 93.6679 189.492 94.446C189.508 95.613 188.603 97.2455 186.767 97.2455C184.932 97.2455 184.026 95.6143 184.026 94.5622C184.026 93.9181 184.247 92.9845 185.162 92.2931C185.704 91.8832 186.457 91.7195 187.679 91.7195C187.679 91.3417 187.679 90.2919 187.679 88.5702Z" stroke="#1F1D2B" stroke-width="1.5" stroke-linejoin="round"/>
<rect x="0.5" y="0.500244" width="44" height="44" rx="7.5" stroke="url(#paint3_linear_1_2121)"/>
<path d="M31.7097 14.6547C31.7097 14.6547 33.6523 13.8972 33.4904 15.7369C33.4365 16.4944 32.9508 19.1456 32.573 22.0133L31.278 30.5082C31.278 30.5082 31.17 31.7526 30.1987 31.9691C29.2273 32.1855 27.7704 31.2116 27.5005 30.9951C27.2847 30.8328 23.4534 28.398 22.1043 27.2076C21.7265 26.883 21.2948 26.2337 22.1582 25.4762L27.8244 20.0655C28.4719 19.4162 29.1194 17.9012 26.4213 19.7408L18.8666 24.881C18.8666 24.881 18.0032 25.4221 16.3843 24.9351L12.8767 23.853C12.8767 23.853 11.5816 23.0414 13.7941 22.2297C19.1904 19.6867 25.8278 17.0895 31.7097 14.6547Z" fill="#1F1D2B"/>
<rect x="83.5" y="0.500244" width="44" height="44" rx="7.5" stroke="url(#paint4_linear_1_2121)"/>
<path fill-rule="evenodd" clip-rule="evenodd" d="M113.168 15.6857C112.69 15.0301 112.116 14.5212 111.438 14.189C110.674 13.8142 109.824 13.6874 108.915 13.7787C107.447 13.9261 106.423 14.7443 105.837 15.9455C105.337 16.9715 105.163 18.2567 105.222 19.6323C103.858 20.1608 102.654 19.8746 101.587 19.1934C100.366 18.414 99.3506 17.1238 98.6365 15.9598C98.4792 15.7036 98.1841 15.5659 97.8867 15.6102C97.5893 15.6545 97.3471 15.8721 97.2714 16.1631C96.7716 18.0831 96.2363 20.5633 97.2973 23.3194C97.9049 24.8979 99.1823 26.2104 101.018 27.2931C99.1935 28.1112 97.7478 28.3556 96.6405 28.1446C96.2785 28.0756 95.92 28.2799 95.7947 28.6265C95.6695 28.9731 95.8147 29.3594 96.1372 29.5377C96.16 29.5503 96.1863 29.565 96.216 29.5815C96.815 29.9148 98.797 31.018 101.256 31.6954C103.817 32.4011 107.06 32.6899 109.807 30.9733C114.902 27.7899 114.868 22.3949 114.852 19.826C114.852 19.7576 114.851 19.6911 114.851 19.6267C114.922 19.5037 115.01 19.3762 115.123 19.2145C115.128 19.2068 115.134 19.1991 115.139 19.1913C115.286 18.9826 115.466 18.7252 115.632 18.4109C115.991 17.7317 116.25 16.851 116.25 15.4721C116.25 15.1742 116.074 14.9045 115.801 14.7851C115.528 14.6656 115.21 14.7191 114.991 14.9212C114.288 15.5705 113.697 15.7615 113.168 15.6857ZM110.778 15.536C110.3 15.3017 109.738 15.2035 109.065 15.2712C108.159 15.3621 107.563 15.8272 107.185 16.6027C106.786 17.4216 106.63 18.6037 106.751 20.0402C106.777 20.345 106.615 20.6349 106.343 20.7729C104.232 21.84 102.317 21.4394 100.779 20.4577C99.8299 19.8515 99.0166 19.0226 98.3537 18.1795C98.1023 19.6077 98.0658 21.1405 98.6971 22.7806C99.2464 24.2074 100.606 25.5141 102.983 26.6341C103.238 26.7547 103.405 27.0088 103.413 27.2915C103.42 27.5741 103.269 27.8372 103.02 27.9719C101.726 28.6735 100.51 29.179 99.3813 29.4598C100.056 29.7405 100.827 30.0212 101.654 30.2493C104.066 30.9137 106.796 31.0862 109.013 29.7012C113.378 26.9735 113.361 22.3863 113.351 19.7855C113.351 19.6672 113.35 19.553 113.35 19.4432C113.35 19.3314 113.375 19.2211 113.424 19.1202C113.565 18.8231 113.743 18.5701 113.89 18.36L113.896 18.3522C114.051 18.131 114.184 17.9403 114.306 17.7105C114.41 17.5126 114.512 17.2728 114.592 16.9591C113.926 17.2306 113.225 17.2863 112.503 17.0707C112.334 17.0201 112.187 16.9112 112.09 16.7634C111.699 16.1658 111.258 15.7709 110.778 15.536Z" fill="#1F1D2B"/>
<rect x="166.5" y="0.500244" width="44" height="44" rx="7.5" stroke="url(#paint5_linear_1_2121)"/>
<path d="M182.531 16.2074C185.302 16.0693 187.458 16.0002 188.998 16.0002C190.538 16.0002 192.695 16.0693 195.468 16.2075C196.969 16.2823 198.183 17.4562 198.308 18.9538C198.435 20.4708 198.498 21.8069 198.498 22.9621C198.498 24.1315 198.433 25.4862 198.303 27.0263C198.178 28.5054 196.991 29.6708 195.509 29.7677C193.139 29.9227 190.968 30.0002 188.998 30.0002C187.028 30.0002 184.858 29.9227 182.489 29.7678C181.008 29.6709 179.821 28.5062 179.695 27.0277C179.564 25.4761 179.498 24.1209 179.498 22.9621C179.498 21.8173 179.562 20.4807 179.691 18.9524C179.817 17.4554 181.03 16.2822 182.531 16.2074Z" stroke="#1F1D2B" stroke-width="1.5" stroke-linejoin="round"/>
<path d="M187.5 20.8049V25.2033C187.5 25.44 187.692 25.6319 187.929 25.6319C188.013 25.6319 188.095 25.6072 188.165 25.5608L191.464 23.3806C191.661 23.2501 191.715 22.9842 191.585 22.7867C191.554 22.7395 191.513 22.6989 191.467 22.6674L188.168 20.4492C187.971 20.3172 187.705 20.3693 187.573 20.5658C187.525 20.6365 187.5 20.7197 187.5 20.8049Z" stroke="#1F1D2B" stroke-width="1.5" stroke-linejoin="round"/>
<defs>
<linearGradient id="paint0_linear_1_2121" x1="0" y1="68.0002" x2="45.5486" y2="68.5626" gradientUnits="userSpaceOnUse">
<stop stop-color="#73E0A9"/>
<stop offset="1" stop-color="#5B68DF"/>
</linearGradient>
<linearGradient id="paint1_linear_1_2121" x1="83" y1="68.0002" x2="128.549" y2="68.5626" gradientUnits="userSpaceOnUse">
<stop stop-color="#73E0A9"/>
<stop offset="1" stop-color="#5B68DF"/>
</linearGradient>
<linearGradient id="paint2_linear_1_2121" x1="166" y1="68.0002" x2="211.549" y2="68.5626" gradientUnits="userSpaceOnUse">
<stop stop-color="#73E0A9"/>
<stop offset="1" stop-color="#5B68DF"/>
</linearGradient>
<linearGradient id="paint3_linear_1_2121" x1="0" y1="0.000244141" x2="45.5486" y2="0.562573" gradientUnits="userSpaceOnUse">
<stop stop-color="#73E0A9"/>
<stop offset="1" stop-color="#5B68DF"/>
</linearGradient>
<linearGradient id="paint4_linear_1_2121" x1="83" y1="0.000244141" x2="128.549" y2="0.562573" gradientUnits="userSpaceOnUse">
<stop stop-color="#73E0A9"/>
<stop offset="1" stop-color="#5B68DF"/>
</linearGradient>
<linearGradient id="paint5_linear_1_2121" x1="166" y1="0.000244141" x2="211.549" y2="0.562573" gradientUnits="userSpaceOnUse">
<stop stop-color="#73E0A9"/>
<stop offset="1" stop-color="#5B68DF"/>
</linearGradient>
<clipPath id="clip0_1_2121">
<rect width="24" height="24" fill="white" transform="translate(11 79.0002)"/>
</clipPath>
</defs>
</svg>
