<svg width="20" height="20" viewBox="0 0 20 20" fill="none" xmlns="http://www.w3.org/2000/svg">
<path fill-rule="evenodd" clip-rule="evenodd" d="M2.91634 6.04175C2.80128 6.04175 2.70801 6.13502 2.70801 6.25008V15.4167C2.70801 15.5318 2.80128 15.6251 2.91634 15.6251H17.083C17.1981 15.6251 17.2913 15.5318 17.2913 15.4167V6.25008C17.2913 6.13502 17.1981 6.04175 17.083 6.04175H2.91634ZM1.45801 6.25008C1.45801 5.44467 2.11093 4.79175 2.91634 4.79175H17.083C17.8884 4.79175 18.5413 5.44467 18.5413 6.25008V15.4167C18.5413 16.2222 17.8884 16.8751 17.083 16.8751H2.91634C2.11093 16.8751 1.45801 16.2222 1.45801 15.4167V6.25008Z" fill="white"/>
<path fill-rule="evenodd" clip-rule="evenodd" d="M9.79199 8.33325C9.79199 7.98807 10.0718 7.70825 10.417 7.70825H17.917C18.2622 7.70825 18.542 7.98807 18.542 8.33325V12.9166C18.542 13.2618 18.2622 13.5416 17.917 13.5416H10.417C10.0718 13.5416 9.79199 13.2618 9.79199 12.9166V8.33325ZM11.042 8.95825V12.2916H17.292V8.95825H11.042Z" fill="white"/>
<path fill-rule="evenodd" clip-rule="evenodd" d="M17.917 6.875C18.2622 6.875 18.542 7.15482 18.542 7.5V13.75C18.542 14.0952 18.2622 14.375 17.917 14.375C17.5718 14.375 17.292 14.0952 17.292 13.75V7.5C17.292 7.15482 17.5718 6.875 17.917 6.875Z" fill="white"/>
<path fill-rule="evenodd" clip-rule="evenodd" d="M3.20891 3.21219C3.61082 2.67898 4.26611 2.29175 5.20801 2.29175H11.2497C11.6739 2.29175 12.3452 2.42716 12.923 2.90304C13.5275 3.40085 13.958 4.2124 13.958 5.41675C13.958 5.76193 13.6782 6.04175 13.333 6.04175C12.9878 6.04175 12.708 5.76193 12.708 5.41675C12.708 4.53776 12.4093 4.09931 12.1284 3.86795C11.8208 3.61467 11.4505 3.54175 11.2497 3.54175H5.20801C4.6499 3.54175 4.3677 3.75153 4.20711 3.96459C4.02383 4.20774 3.95801 4.51527 3.95801 4.70779V5.41675C3.95801 5.76193 3.67819 6.04175 3.33301 6.04175C2.98783 6.04175 2.70801 5.76193 2.70801 5.41675V4.70779C2.70801 4.3033 2.82969 3.7153 3.20891 3.21219Z" fill="white"/>
<path d="M13.958 11.25C14.3032 11.25 14.583 10.9702 14.583 10.625C14.583 10.2798 14.3032 10 13.958 10C13.6128 10 13.333 10.2798 13.333 10.625C13.333 10.9702 13.6128 11.25 13.958 11.25Z" fill="white"/>
</svg>
