<svg width="20" height="20" viewBox="0 0 20 20" fill="none" xmlns="http://www.w3.org/2000/svg">
<path fill-rule="evenodd" clip-rule="evenodd" d="M2.91683 6.04163C2.80177 6.04163 2.7085 6.1349 2.7085 6.24996V15.4166C2.7085 15.5317 2.80177 15.625 2.91683 15.625H17.0835C17.1986 15.625 17.2918 15.5317 17.2918 15.4166V6.24996C17.2918 6.1349 17.1986 6.04163 17.0835 6.04163H2.91683ZM1.4585 6.24996C1.4585 5.44454 2.11141 4.79163 2.91683 4.79163H17.0835C17.8889 4.79163 18.5418 5.44454 18.5418 6.24996V15.4166C18.5418 16.222 17.8889 16.875 17.0835 16.875H2.91683C2.11141 16.875 1.4585 16.222 1.4585 15.4166V6.24996Z" fill="white"/>
<path fill-rule="evenodd" clip-rule="evenodd" d="M9.7915 8.33337C9.7915 7.9882 10.0713 7.70837 10.4165 7.70837H17.9165C18.2617 7.70837 18.5415 7.9882 18.5415 8.33337V12.9167C18.5415 13.2619 18.2617 13.5417 17.9165 13.5417H10.4165C10.0713 13.5417 9.7915 13.2619 9.7915 12.9167V8.33337ZM11.0415 8.95837V12.2917H17.2915V8.95837H11.0415Z" fill="white"/>
<path fill-rule="evenodd" clip-rule="evenodd" d="M17.9165 6.875C18.2617 6.875 18.5415 7.15482 18.5415 7.5V13.75C18.5415 14.0952 18.2617 14.375 17.9165 14.375C17.5713 14.375 17.2915 14.0952 17.2915 13.75V7.5C17.2915 7.15482 17.5713 6.875 17.9165 6.875Z" fill="white"/>
<path fill-rule="evenodd" clip-rule="evenodd" d="M3.2094 3.21207C3.61131 2.67886 4.2666 2.29163 5.2085 2.29163H11.2502C11.6743 2.29163 12.3457 2.42704 12.9235 2.90292C13.528 3.40073 13.9585 4.21228 13.9585 5.41663C13.9585 5.7618 13.6787 6.04163 13.3335 6.04163C12.9883 6.04163 12.7085 5.7618 12.7085 5.41663C12.7085 4.53764 12.4098 4.09919 12.1289 3.86783C11.8213 3.61455 11.451 3.54163 11.2502 3.54163H5.2085C4.65039 3.54163 4.36819 3.75141 4.2076 3.96446C4.02431 4.20762 3.9585 4.51515 3.9585 4.70767V5.41663C3.9585 5.7618 3.67867 6.04163 3.3335 6.04163C2.98832 6.04163 2.7085 5.7618 2.7085 5.41663V4.70767C2.7085 4.30318 2.83018 3.71518 3.2094 3.21207Z" fill="white"/>
<path d="M13.9585 11.25C14.3037 11.25 14.5835 10.9702 14.5835 10.625C14.5835 10.2798 14.3037 10 13.9585 10C13.6133 10 13.3335 10.2798 13.3335 10.625C13.3335 10.9702 13.6133 11.25 13.9585 11.25Z" fill="white"/>
</svg>
