<svg width="20" height="20" viewBox="0 0 20 20" fill="none" xmlns="http://www.w3.org/2000/svg">
<path fill-rule="evenodd" clip-rule="evenodd" d="M2.91732 6.04199C2.80226 6.04199 2.70898 6.13527 2.70898 6.25033V15.417C2.70898 15.5321 2.80226 15.6253 2.91732 15.6253H17.084C17.199 15.6253 17.2923 15.5321 17.2923 15.417V6.25033C17.2923 6.13527 17.199 6.04199 17.084 6.04199H2.91732ZM1.45898 6.25033C1.45898 5.44491 2.1119 4.79199 2.91732 4.79199H17.084C17.8894 4.79199 18.5423 5.44491 18.5423 6.25033V15.417C18.5423 16.2224 17.8894 16.8753 17.084 16.8753H2.91732C2.1119 16.8753 1.45898 16.2224 1.45898 15.417V6.25033Z" fill="white"/>
<path fill-rule="evenodd" clip-rule="evenodd" d="M9.79102 8.3335C9.79102 7.98832 10.0708 7.7085 10.416 7.7085H17.916C18.2612 7.7085 18.541 7.98832 18.541 8.3335V12.9168C18.541 13.262 18.2612 13.5418 17.916 13.5418H10.416C10.0708 13.5418 9.79102 13.262 9.79102 12.9168V8.3335ZM11.041 8.9585V12.2918H17.291V8.9585H11.041Z" fill="white"/>
<path fill-rule="evenodd" clip-rule="evenodd" d="M17.916 6.87524C18.2612 6.87524 18.541 7.15507 18.541 7.50024V13.7502C18.541 14.0954 18.2612 14.3752 17.916 14.3752C17.5708 14.3752 17.291 14.0954 17.291 13.7502V7.50024C17.291 7.15507 17.5708 6.87524 17.916 6.87524Z" fill="white"/>
<path fill-rule="evenodd" clip-rule="evenodd" d="M3.20988 3.21244C3.61179 2.67922 4.26709 2.29199 5.20898 2.29199H11.2507C11.6748 2.29199 12.3462 2.4274 12.924 2.90329C13.5285 3.40109 13.959 4.21264 13.959 5.41699C13.959 5.76217 13.6792 6.04199 13.334 6.04199C12.9888 6.04199 12.709 5.76217 12.709 5.41699C12.709 4.53801 12.4103 4.09956 12.1294 3.8682C11.8218 3.61491 11.4515 3.54199 11.2507 3.54199H5.20898C4.65088 3.54199 4.36867 3.75178 4.20808 3.96483C4.0248 4.20799 3.95898 4.51551 3.95898 4.70803V5.41699C3.95898 5.76217 3.67916 6.04199 3.33398 6.04199C2.98881 6.04199 2.70898 5.76217 2.70898 5.41699V4.70803C2.70898 4.30354 2.83067 3.71554 3.20988 3.21244Z" fill="white"/>
<path d="M13.959 11.2502C14.3042 11.2502 14.584 10.9704 14.584 10.6252C14.584 10.2801 14.3042 10.0002 13.959 10.0002C13.6138 10.0002 13.334 10.2801 13.334 10.6252C13.334 10.9704 13.6138 11.2502 13.959 11.2502Z" fill="white"/>
</svg>
