<svg width="20" height="20" viewBox="0 0 20 20" fill="none" xmlns="http://www.w3.org/2000/svg">
<path fill-rule="evenodd" clip-rule="evenodd" d="M2.91665 6.04175C2.80159 6.04175 2.70831 6.13502 2.70831 6.25008V15.4167C2.70831 15.5318 2.80159 15.6251 2.91665 15.6251H17.0833C17.1984 15.6251 17.2916 15.5318 17.2916 15.4167V6.25008C17.2916 6.13502 17.1984 6.04175 17.0833 6.04175H2.91665ZM1.45831 6.25008C1.45831 5.44467 2.11123 4.79175 2.91665 4.79175H17.0833C17.8887 4.79175 18.5416 5.44467 18.5416 6.25008V15.4167C18.5416 16.2222 17.8887 16.8751 17.0833 16.8751H2.91665C2.11123 16.8751 1.45831 16.2222 1.45831 15.4167V6.25008Z" fill="white"/>
<path fill-rule="evenodd" clip-rule="evenodd" d="M9.79169 8.33325C9.79169 7.98807 10.0715 7.70825 10.4167 7.70825H17.9167C18.2619 7.70825 18.5417 7.98807 18.5417 8.33325V12.9166C18.5417 13.2618 18.2619 13.5416 17.9167 13.5416H10.4167C10.0715 13.5416 9.79169 13.2618 9.79169 12.9166V8.33325ZM11.0417 8.95825V12.2916H17.2917V8.95825H11.0417Z" fill="white"/>
<path fill-rule="evenodd" clip-rule="evenodd" d="M17.9167 6.875C18.2619 6.875 18.5417 7.15482 18.5417 7.5V13.75C18.5417 14.0952 18.2619 14.375 17.9167 14.375C17.5715 14.375 17.2917 14.0952 17.2917 13.75V7.5C17.2917 7.15482 17.5715 6.875 17.9167 6.875Z" fill="white"/>
<path fill-rule="evenodd" clip-rule="evenodd" d="M3.20921 3.21219C3.61112 2.67898 4.26642 2.29175 5.20831 2.29175H11.25C11.6742 2.29175 12.3455 2.42716 12.9233 2.90304C13.5278 3.40085 13.9583 4.2124 13.9583 5.41675C13.9583 5.76193 13.6785 6.04175 13.3333 6.04175C12.9881 6.04175 12.7083 5.76193 12.7083 5.41675C12.7083 4.53776 12.4096 4.09931 12.1287 3.86795C11.8211 3.61467 11.4508 3.54175 11.25 3.54175H5.20831C4.65021 3.54175 4.368 3.75153 4.20741 3.96459C4.02413 4.20774 3.95831 4.51527 3.95831 4.70779V5.41675C3.95831 5.76193 3.67849 6.04175 3.33331 6.04175C2.98814 6.04175 2.70831 5.76193 2.70831 5.41675V4.70779C2.70831 4.3033 2.82999 3.7153 3.20921 3.21219Z" fill="white"/>
<path d="M13.9583 11.25C14.3035 11.25 14.5833 10.9702 14.5833 10.625C14.5833 10.2798 14.3035 10 13.9583 10C13.6131 10 13.3333 10.2798 13.3333 10.625C13.3333 10.9702 13.6131 11.25 13.9583 11.25Z" fill="white"/>
</svg>
