<svg width="122" height="122" viewBox="0 0 122 122" fill="none" xmlns="http://www.w3.org/2000/svg">
<path opacity="0.4" d="M120.634 90.4002L119.568 30.4097C119.281 14.2579 105.955 1.39697 89.8032 1.68396L29.8127 2.74987C13.6609 3.03685 0.79994 16.3631 1.08692 32.5149L2.15283 92.5054C2.43982 108.657 15.7661 121.518 31.9178 121.231L91.9084 120.165C108.06 119.878 120.921 106.552 120.634 90.4002ZM89.7988 1.434C106.089 1.14456 119.529 14.1154 119.818 30.4053L120.884 90.3958C121.174 106.686 108.203 120.126 91.9128 120.415L31.9223 121.481C15.6325 121.771 2.1923 108.8 1.90286 92.5099L0.836956 32.5193C0.547519 16.2295 13.5184 2.78934 29.8082 2.49991L89.7988 1.434Z" stroke="url(#paint0_linear_1_1443)"/>
<defs>
<linearGradient id="paint0_linear_1_1443" x1="119.785" y1="0.401123" x2="1.9359" y2="122.514" gradientUnits="userSpaceOnUse">
<stop offset="0.15625" stop-color="#624DE3" stop-opacity="0.6"/>
<stop offset="0.432292" stop-color="#FA03FF" stop-opacity="0.6"/>
<stop offset="0.822917" stop-color="#1510FF" stop-opacity="0.7"/>
<stop offset="1" stop-color="#624DE3" stop-opacity="0.4"/>
</linearGradient>
</defs>
</svg>
