<svg width="146" height="146" viewBox="0 0 146 146" fill="none" xmlns="http://www.w3.org/2000/svg">
<path opacity="0.2" d="M108.004 1.59106L36.0097 2.4888C16.6812 2.72982 1.20777 18.594 1.44879 37.9225L2.34653 109.917C2.58754 129.245 18.4517 144.719 37.7802 144.478L109.775 143.58C129.103 143.339 144.577 127.475 144.335 108.146L143.438 36.1519C143.197 16.8235 127.333 1.35005 108.004 1.59106ZM0.948829 37.9287C0.704369 18.3241 16.3989 2.2333 36.0034 1.98884L107.998 1.0911C127.602 0.846641 143.693 16.5411 143.938 36.1457L144.835 108.14C145.08 127.745 129.385 143.836 109.781 144.08L37.7864 144.978C18.1819 145.222 2.09103 129.528 1.84657 109.923L0.948829 37.9287Z" stroke="url(#paint0_linear_1_1192)"/>
<defs>
<linearGradient id="paint0_linear_1_1192" x1="0" y1="1.93774" x2="145.784" y2="144.131" gradientUnits="userSpaceOnUse">
<stop offset="0.15625" stop-color="#624DE3" stop-opacity="0.6"/>
<stop offset="0.432292" stop-color="#FA03FF" stop-opacity="0.6"/>
<stop offset="0.822917" stop-color="#1510FF" stop-opacity="0.7"/>
<stop offset="1" stop-color="#624DE3" stop-opacity="0.4"/>
</linearGradient>
</defs>
</svg>
