<svg width="146" height="146" viewBox="0 0 146 146" fill="none" xmlns="http://www.w3.org/2000/svg">
<path opacity="0.2" d="M37.7801 144.688L109.775 143.791C129.103 143.55 144.576 127.685 144.335 108.357L143.438 36.3625C143.197 17.0341 127.332 1.56063 108.004 1.80165L36.0096 2.69939C16.6811 2.9404 1.20767 18.8046 1.44868 38.1331L2.34642 110.127C2.58744 129.456 18.4516 144.929 37.7801 144.688ZM144.835 108.351C145.08 127.955 129.385 144.046 109.781 144.291L37.7863 145.188C18.1817 145.433 2.09092 129.738 1.84646 110.134L0.948722 38.1393C0.704262 18.5347 16.3987 2.44389 36.0033 2.19943L107.998 1.30169C127.602 1.05723 143.693 16.7517 143.938 36.3563L144.835 108.351Z" stroke="url(#paint0_linear_1_1743)"/>
<defs>
<linearGradient id="paint0_linear_1_1743" x1="145.784" y1="144.342" x2="-0.000106777" y2="2.14833" gradientUnits="userSpaceOnUse">
<stop offset="0.15625" stop-color="#624DE3" stop-opacity="0.6"/>
<stop offset="0.432292" stop-color="#FA03FF" stop-opacity="0.6"/>
<stop offset="0.822917" stop-color="#1510FF" stop-opacity="0.7"/>
<stop offset="1" stop-color="#624DE3" stop-opacity="0.4"/>
</linearGradient>
</defs>
</svg>
