<svg width="122" height="122" viewBox="0 0 122 122" fill="none" xmlns="http://www.w3.org/2000/svg">
<path opacity="0.4" d="M31.7818 120.714L91.7772 119.966C107.93 119.764 120.862 106.507 120.66 90.3535L119.912 30.3581C119.711 14.2051 106.453 1.2737 90.2996 1.47512L30.3043 2.22324C14.1512 2.42466 1.21986 15.6826 1.42128 31.8357L2.16939 91.831C2.37081 107.984 15.6288 120.915 31.7818 120.714ZM120.91 90.3504C121.113 106.641 108.071 120.013 91.7803 120.216L31.7849 120.964C15.4938 121.167 2.12255 108.125 1.9194 91.8341L1.17129 31.8388C0.968147 15.5476 14.01 2.17639 30.3012 1.97325L90.2965 1.22513C106.588 1.02199 119.959 14.0639 120.162 30.355L120.91 90.3504Z" stroke="url(#paint0_linear_1_1822)"/>
<defs>
<linearGradient id="paint0_linear_1_1822" x1="121.784" y1="120.342" x2="0.297279" y2="1.84735" gradientUnits="userSpaceOnUse">
<stop offset="0.15625" stop-color="#624DE3" stop-opacity="0.6"/>
<stop offset="0.432292" stop-color="#FA03FF" stop-opacity="0.6"/>
<stop offset="0.822917" stop-color="#1510FF" stop-opacity="0.7"/>
<stop offset="1" stop-color="#624DE3" stop-opacity="0.4"/>
</linearGradient>
</defs>
</svg>
