<svg width="146" height="147" viewBox="0 0 146 147" fill="none" xmlns="http://www.w3.org/2000/svg">
<path opacity="0.2" d="M144.489 108.191L143.21 36.2019C142.867 16.875 126.921 1.48581 107.594 1.82921L35.6051 3.1083C16.2782 3.45169 0.889013 19.3976 1.23241 38.7246L2.5115 110.713C2.8549 130.04 18.8009 145.429 38.1278 145.086L110.116 143.807C129.443 143.463 144.833 127.517 144.489 108.191ZM107.585 1.32929C127.188 0.98098 143.362 16.59 143.71 36.193L144.989 108.182C145.337 127.785 129.728 143.958 110.125 144.307L38.1366 145.586C18.5336 145.934 2.35989 130.325 2.01158 110.722L0.732491 38.7334C0.384186 19.1304 15.9932 2.95668 35.5962 2.60837L107.585 1.32929Z" stroke="url(#paint0_linear_1_1444)"/>
<defs>
<linearGradient id="paint0_linear_1_1444" x1="143.57" y1="0.189819" x2="2.1512" y2="146.725" gradientUnits="userSpaceOnUse">
<stop offset="0.15625" stop-color="#624DE3" stop-opacity="0.6"/>
<stop offset="0.432292" stop-color="#FA03FF" stop-opacity="0.6"/>
<stop offset="0.822917" stop-color="#1510FF" stop-opacity="0.7"/>
<stop offset="1" stop-color="#624DE3" stop-opacity="0.4"/>
</linearGradient>
</defs>
</svg>
