<svg width="146" height="146" viewBox="0 0 146 146" fill="none" xmlns="http://www.w3.org/2000/svg">
<path opacity="0.2" d="M37.9959 144.347L109.99 143.449C129.319 143.208 144.792 127.344 144.551 108.015L143.653 36.0209C143.412 16.6924 127.548 1.21896 108.22 1.45998L36.2254 2.35771C16.8969 2.59873 1.42349 18.4629 1.6645 37.7914L2.56224 109.786C2.80326 129.114 18.6675 144.588 37.9959 144.347ZM145.051 108.009C145.296 127.614 129.601 143.704 109.997 143.949L38.0022 144.847C18.3976 145.091 2.30674 129.397 2.06228 109.792L1.16454 37.7976C0.920083 18.193 16.6146 2.10221 36.2192 1.85775L108.214 0.960015C127.818 0.715555 143.909 16.41 144.153 36.0146L145.051 108.009Z" stroke="url(#paint0_linear_1_940)"/>
<defs>
<linearGradient id="paint0_linear_1_940" x1="146" y1="144" x2="0.215714" y2="1.80666" gradientUnits="userSpaceOnUse">
<stop offset="0.15625" stop-color="#624DE3" stop-opacity="0.6"/>
<stop offset="0.432292" stop-color="#FA03FF" stop-opacity="0.6"/>
<stop offset="0.822917" stop-color="#1510FF" stop-opacity="0.7"/>
<stop offset="1" stop-color="#624DE3" stop-opacity="0.4"/>
</linearGradient>
</defs>
</svg>
