<svg width="146" height="146" viewBox="0 0 146 146" fill="none" xmlns="http://www.w3.org/2000/svg">
<path opacity="0.2" d="M37.7801 144.335L109.775 143.438C129.103 143.197 144.576 127.332 144.335 108.004L143.438 36.0096C143.197 16.6812 127.332 1.20773 108.004 1.44875L36.0096 2.34648C16.6811 2.5875 1.20767 18.4517 1.44868 37.7802L2.34642 109.775C2.58744 129.103 18.4516 144.576 37.7801 144.335ZM144.835 107.998C145.08 127.602 129.385 143.693 109.781 143.938L37.7863 144.835C18.1817 145.08 2.09092 129.385 1.84646 109.781L0.948722 37.7864C0.704262 18.1818 16.3987 2.09098 36.0033 1.84652L107.998 0.948784C127.602 0.704324 143.693 16.3988 143.938 36.0034L144.835 107.998Z" stroke="url(#paint0_linear_1_1728)"/>
<defs>
<linearGradient id="paint0_linear_1_1728" x1="145.784" y1="143.989" x2="-0.000106777" y2="1.79543" gradientUnits="userSpaceOnUse">
<stop offset="0.15625" stop-color="#624DE3" stop-opacity="0.6"/>
<stop offset="0.432292" stop-color="#FA03FF" stop-opacity="0.6"/>
<stop offset="0.822917" stop-color="#1510FF" stop-opacity="0.7"/>
<stop offset="1" stop-color="#624DE3" stop-opacity="0.4"/>
</linearGradient>
</defs>
</svg>
