<svg width="122" height="122" viewBox="0 0 122 122" fill="none" xmlns="http://www.w3.org/2000/svg">
<path opacity="0.4" d="M31.7818 120.93L91.7772 120.181C107.93 119.98 120.862 106.722 120.66 90.5691L119.912 30.5737C119.711 14.4206 106.453 1.48928 90.2996 1.6907L30.3043 2.43881C14.1512 2.64023 1.21986 15.8982 1.42128 32.0512L2.16939 92.0466C2.37081 108.2 15.6288 121.131 31.7818 120.93ZM120.91 90.5659C121.113 106.857 108.071 120.228 91.7803 120.431L31.7849 121.18C15.4938 121.383 2.12255 108.341 1.9194 92.0497L1.17129 32.0544C0.968147 15.7632 14.01 2.39197 30.3012 2.18882L90.2965 1.44071C106.588 1.23757 119.959 14.2795 120.162 30.5706L120.91 90.5659Z" stroke="url(#paint0_linear_1_1752)"/>
<defs>
<linearGradient id="paint0_linear_1_1752" x1="121.784" y1="120.557" x2="0.297279" y2="2.06293" gradientUnits="userSpaceOnUse">
<stop offset="0.15625" stop-color="#624DE3" stop-opacity="0.6"/>
<stop offset="0.432292" stop-color="#FA03FF" stop-opacity="0.6"/>
<stop offset="0.822917" stop-color="#1510FF" stop-opacity="0.7"/>
<stop offset="1" stop-color="#624DE3" stop-opacity="0.4"/>
</linearGradient>
</defs>
</svg>
