<svg width="122" height="122" viewBox="0 0 122 122" fill="none" xmlns="http://www.w3.org/2000/svg">
<path opacity="0.4" d="M31.7818 120.361L91.7772 119.613C107.93 119.411 120.862 106.154 120.66 90.0005L119.912 30.0051C119.711 13.852 106.453 0.920673 90.2996 1.12209L30.3043 1.87021C14.1512 2.07163 1.21986 15.3296 1.42128 31.4826L2.16939 91.478C2.37081 107.631 15.6288 120.562 31.7818 120.361ZM120.91 89.9973C121.113 106.288 108.071 119.66 91.7803 119.863L31.7849 120.611C15.4938 120.814 2.12255 107.772 1.9194 91.4811L1.17129 31.4858C0.968147 15.1946 14.01 1.82336 30.3012 1.62022L90.2965 0.872106C106.588 0.668963 119.959 13.7109 120.162 30.002L120.91 89.9973Z" stroke="url(#paint0_linear_1_1727)"/>
<defs>
<linearGradient id="paint0_linear_1_1727" x1="121.784" y1="119.989" x2="0.297279" y2="1.49432" gradientUnits="userSpaceOnUse">
<stop offset="0.15625" stop-color="#624DE3" stop-opacity="0.6"/>
<stop offset="0.432292" stop-color="#FA03FF" stop-opacity="0.6"/>
<stop offset="0.822917" stop-color="#1510FF" stop-opacity="0.7"/>
<stop offset="1" stop-color="#624DE3" stop-opacity="0.4"/>
</linearGradient>
</defs>
</svg>
