<svg width="122" height="122" viewBox="0 0 122 122" fill="none" xmlns="http://www.w3.org/2000/svg">
<path opacity="0.4" d="M31.9976 120.372L91.993 119.624C108.146 119.423 121.077 106.165 120.876 90.0117L120.128 30.0163C119.926 13.8633 106.669 0.931904 90.5155 1.13332L30.5201 1.88144C14.367 2.08286 1.43568 15.3408 1.6371 31.4939L2.38521 91.4892C2.58663 107.642 15.8446 120.574 31.9976 120.372ZM121.126 90.0086C121.329 106.3 108.287 119.671 91.9961 119.874L32.0008 120.622C15.7096 120.825 2.33837 107.783 2.13522 91.4923L1.38711 31.497C1.18397 15.2058 14.2259 1.83459 30.517 1.63145L90.5123 0.883337C106.803 0.680194 120.175 13.7221 120.378 30.0132L121.126 90.0086Z" stroke="url(#paint0_linear_1_939)"/>
<defs>
<linearGradient id="paint0_linear_1_939" x1="122" y1="120" x2="0.5131" y2="1.50555" gradientUnits="userSpaceOnUse">
<stop offset="0.15625" stop-color="#624DE3" stop-opacity="0.6"/>
<stop offset="0.432292" stop-color="#FA03FF" stop-opacity="0.6"/>
<stop offset="0.822917" stop-color="#1510FF" stop-opacity="0.7"/>
<stop offset="1" stop-color="#624DE3" stop-opacity="0.4"/>
</linearGradient>
</defs>
</svg>
