<svg width="122" height="121" viewBox="0 0 122 121" fill="none" xmlns="http://www.w3.org/2000/svg">
<path opacity="0.4" d="M31.7818 120.145L91.7772 119.397C107.93 119.196 120.862 105.938 120.66 89.7846L119.912 29.7893C119.711 13.6362 106.453 0.704853 90.2996 0.906274L30.3043 1.65439C14.1512 1.85581 1.21986 15.1137 1.42128 31.2668L2.16939 91.2622C2.37081 107.415 15.6288 120.347 31.7818 120.145ZM120.91 89.7815C121.113 106.073 108.071 119.444 91.7803 119.647L31.7849 120.395C15.4938 120.598 2.12255 107.556 1.9194 91.2653L1.17129 31.2699C0.968147 14.9788 14.01 1.60754 30.3012 1.4044L90.2965 0.656286C106.588 0.453143 119.959 13.495 120.162 29.7862L120.91 89.7815Z" stroke="url(#paint0_linear_1_1757)"/>
<defs>
<linearGradient id="paint0_linear_1_1757" x1="121.784" y1="119.773" x2="0.297279" y2="1.2785" gradientUnits="userSpaceOnUse">
<stop offset="0.15625" stop-color="#624DE3" stop-opacity="0.6"/>
<stop offset="0.432292" stop-color="#FA03FF" stop-opacity="0.6"/>
<stop offset="0.822917" stop-color="#1510FF" stop-opacity="0.7"/>
<stop offset="1" stop-color="#624DE3" stop-opacity="0.4"/>
</linearGradient>
</defs>
</svg>
