<svg width="122" height="122" viewBox="0 0 122 122" fill="none" xmlns="http://www.w3.org/2000/svg">
<path opacity="0.4" d="M90.1508 1.41488L30.1555 2.16299C14.0024 2.36442 1.07101 15.6224 1.27244 31.7754L2.02055 91.7708C2.22197 107.924 15.4799 120.855 31.633 120.654L91.6283 119.906C107.781 119.704 120.713 106.446 120.511 90.2932L119.763 30.2979C119.562 14.1448 106.304 1.21346 90.1508 1.41488ZM1.02246 31.7785C0.819313 15.4874 13.8612 2.11616 30.1523 1.91301L90.1477 1.1649C106.439 0.961758 119.81 14.0037 120.013 30.2948L120.761 90.2901C120.964 106.581 107.923 119.953 91.6314 120.156L31.6361 120.904C15.345 121.107 1.97371 108.065 1.77057 91.7739L1.02246 31.7785Z" stroke="url(#paint0_linear_1_1191)"/>
<defs>
<linearGradient id="paint0_linear_1_1191" x1="0.148438" y1="1.78711" x2="121.635" y2="120.282" gradientUnits="userSpaceOnUse">
<stop offset="0.15625" stop-color="#624DE3" stop-opacity="0.6"/>
<stop offset="0.432292" stop-color="#FA03FF" stop-opacity="0.6"/>
<stop offset="0.822917" stop-color="#1510FF" stop-opacity="0.7"/>
<stop offset="1" stop-color="#624DE3" stop-opacity="0.4"/>
</linearGradient>
</defs>
</svg>
