<svg width="146" height="146" viewBox="0 0 146 146" fill="none" xmlns="http://www.w3.org/2000/svg">
<path opacity="0.2" d="M37.7801 144.12L109.775 143.222C129.103 142.981 144.576 127.117 144.335 107.788L143.438 35.7938C143.197 16.4654 127.332 0.991908 108.004 1.23293L36.0096 2.13066C16.6811 2.37168 1.20767 18.2359 1.44868 37.5643L2.34642 109.559C2.58744 128.887 18.4516 144.361 37.7801 144.12ZM144.835 107.782C145.08 127.387 129.385 143.477 109.781 143.722L37.7863 144.62C18.1817 144.864 2.09092 129.17 1.84646 109.565L0.948722 37.5706C0.704262 17.966 16.3987 1.87516 36.0033 1.6307L107.998 0.732964C127.602 0.488504 143.693 16.183 143.938 35.7876L144.835 107.782Z" stroke="url(#paint0_linear_1_1758)"/>
<defs>
<linearGradient id="paint0_linear_1_1758" x1="145.784" y1="143.773" x2="-0.000106777" y2="1.57961" gradientUnits="userSpaceOnUse">
<stop offset="0.15625" stop-color="#624DE3" stop-opacity="0.6"/>
<stop offset="0.432292" stop-color="#FA03FF" stop-opacity="0.6"/>
<stop offset="0.822917" stop-color="#1510FF" stop-opacity="0.7"/>
<stop offset="1" stop-color="#624DE3" stop-opacity="0.4"/>
</linearGradient>
</defs>
</svg>
