<svg width="146" height="145" viewBox="0 0 146 145" fill="none" xmlns="http://www.w3.org/2000/svg">
<path opacity="0.2" d="M37.7801 143.904L109.775 143.006C129.103 142.765 144.576 126.901 144.335 107.573L143.438 35.5782C143.197 16.2498 127.332 0.776332 108.004 1.01735L36.0096 1.91508C16.6811 2.1561 1.20767 18.0203 1.44868 37.3488L2.34642 109.343C2.58744 128.672 18.4516 144.145 37.7801 143.904ZM144.835 107.566C145.08 127.171 129.385 143.262 109.781 143.506L37.7863 144.404C18.1817 144.648 2.09092 128.954 1.84646 109.349L0.948722 37.355C0.704262 17.7504 16.3987 1.65958 36.0033 1.41512L107.998 0.517388C127.602 0.272928 143.693 15.9674 143.938 35.572L144.835 107.566Z" stroke="url(#paint0_linear_1_1753)"/>
<defs>
<linearGradient id="paint0_linear_1_1753" x1="145.784" y1="143.557" x2="-0.000106777" y2="1.36403" gradientUnits="userSpaceOnUse">
<stop offset="0.15625" stop-color="#624DE3" stop-opacity="0.6"/>
<stop offset="0.432292" stop-color="#FA03FF" stop-opacity="0.6"/>
<stop offset="0.822917" stop-color="#1510FF" stop-opacity="0.7"/>
<stop offset="1" stop-color="#624DE3" stop-opacity="0.4"/>
</linearGradient>
</defs>
</svg>
