<svg width="122" height="122" viewBox="0 0 122 122" fill="none" xmlns="http://www.w3.org/2000/svg">
<path opacity="0.4" d="M31.7818 120.714L91.7772 119.966C107.93 119.764 120.862 106.506 120.66 90.3534L119.912 30.358C119.711 14.2049 106.453 1.27358 90.2996 1.475L30.3043 2.22311C14.1512 2.42453 1.21986 15.6825 1.42128 31.8355L2.16939 91.8309C2.37081 107.984 15.6288 120.915 31.7818 120.714ZM120.91 90.3502C121.113 106.641 108.071 120.013 91.7803 120.216L31.7849 120.964C15.4938 121.167 2.12255 108.125 1.9194 91.834L1.17129 31.8387C0.968147 15.5475 14.01 2.17627 30.3012 1.97312L90.2965 1.22501C106.588 1.02187 119.959 14.0638 120.162 30.3549L120.91 90.3502Z" stroke="url(#paint0_linear_1_1742)"/>
<defs>
<linearGradient id="paint0_linear_1_1742" x1="121.784" y1="120.342" x2="0.297279" y2="1.84723" gradientUnits="userSpaceOnUse">
<stop offset="0.15625" stop-color="#624DE3" stop-opacity="0.6"/>
<stop offset="0.432292" stop-color="#FA03FF" stop-opacity="0.6"/>
<stop offset="0.822917" stop-color="#1510FF" stop-opacity="0.7"/>
<stop offset="1" stop-color="#624DE3" stop-opacity="0.4"/>
</linearGradient>
</defs>
</svg>
