<svg width="146" height="146" viewBox="0 0 146 146" fill="none" xmlns="http://www.w3.org/2000/svg">
<path opacity="0.2" d="M37.7801 144.688L109.775 143.791C129.103 143.55 144.576 127.686 144.335 108.357L143.438 36.3627C143.197 17.0342 127.332 1.56076 108.004 1.80177L36.0096 2.69951C16.6811 2.94053 1.20767 18.8047 1.44868 38.1332L2.34642 110.128C2.58744 129.456 18.4516 144.929 37.7801 144.688ZM144.835 108.351C145.08 127.955 129.385 144.046 109.781 144.291L37.7863 145.188C18.1817 145.433 2.09092 129.738 1.84646 110.134L0.948722 38.1394C0.704262 18.5348 16.3987 2.44401 36.0033 2.19955L107.998 1.30181C127.602 1.05735 143.693 16.7518 143.938 36.3564L144.835 108.351Z" stroke="url(#paint0_linear_1_1823)"/>
<defs>
<linearGradient id="paint0_linear_1_1823" x1="145.784" y1="144.342" x2="-0.000106777" y2="2.14845" gradientUnits="userSpaceOnUse">
<stop offset="0.15625" stop-color="#624DE3" stop-opacity="0.6"/>
<stop offset="0.432292" stop-color="#FA03FF" stop-opacity="0.6"/>
<stop offset="0.822917" stop-color="#1510FF" stop-opacity="0.7"/>
<stop offset="1" stop-color="#624DE3" stop-opacity="0.4"/>
</linearGradient>
</defs>
</svg>
