<svg width="80" height="80" viewBox="0 0 80 80" fill="none" xmlns="http://www.w3.org/2000/svg">
<g filter="url(#filter0_d_1_315)">
<circle cx="36" cy="36" r="32" fill="white"/>
<path d="M28.9218 25.1719C28.7812 24.75 28.1718 24.75 28.0312 25.1719L25.3593 33.375H31.5468L28.9218 25.1719ZM23.9999 37.5C23.9062 37.875 24.0468 38.2969 24.3749 38.5312L35.9531 47.1562L25.3593 33.375L23.9999 37.5ZM31.5468 33.375L35.9999 47.1562L40.4062 33.375H31.5468ZM47.9531 37.5L46.5937 33.375L35.9999 47.1562L47.5781 38.5312C47.9062 38.2969 48.0468 37.875 47.9531 37.5ZM43.9218 25.1719C43.7812 24.75 43.2187 24.75 43.0312 25.1719L40.4062 33.375H46.5937L43.9218 25.1719Z" fill="black"/>
</g>
<defs>
<filter id="filter0_d_1_315" x="0" y="0" width="80" height="80" filterUnits="userSpaceOnUse" color-interpolation-filters="sRGB">
<feFlood flood-opacity="0" result="BackgroundImageFix"/>
<feColorMatrix in="SourceAlpha" type="matrix" values="0 0 0 0 0 0 0 0 0 0 0 0 0 0 0 0 0 0 127 0" result="hardAlpha"/>
<feOffset dx="4" dy="4"/>
<feGaussianBlur stdDeviation="4"/>
<feComposite in2="hardAlpha" operator="out"/>
<feColorMatrix type="matrix" values="0 0 0 0 0 0 0 0 0 0 0 0 0 0 0 0 0 0 0.12 0"/>
<feBlend mode="normal" in2="BackgroundImageFix" result="effect1_dropShadow_1_315"/>
<feBlend mode="normal" in="SourceGraphic" in2="effect1_dropShadow_1_315" result="shape"/>
</filter>
</defs>
</svg>
