<svg width="60" height="58" viewBox="0 0 60 58" fill="none" xmlns="http://www.w3.org/2000/svg">
<path d="M30.3173 2.81307C26.8036 2.689 23.3004 3.25643 20.0192 4.48111C16.7381 5.70578 13.747 7.56228 11.2267 9.93851C8.70631 12.3147 6.70896 15.1614 5.35522 18.3066C4.00148 21.4519 3.31943 24.8304 3.35025 28.2382C3.30385 31.7499 4.02575 35.2314 5.46838 38.4531C6.91102 41.6748 9.04164 44.5636 11.7198 46.9292L11.8473 50.9449C11.883 52.0557 12.3633 53.1093 13.1865 53.8828C14.0097 54.6563 15.1111 55.0889 16.2577 55.089C16.8702 55.0883 17.4761 54.9653 18.0375 54.7278L22.7469 52.7128C25.2165 53.3498 27.7618 53.6693 30.3173 53.6633C33.8311 53.7873 37.3344 53.2199 40.6157 51.9953C43.897 50.7706 46.8882 48.9142 49.4088 46.538C51.9293 44.1618 53.9269 41.3151 55.2809 38.1699C56.6349 35.0247 57.3173 31.6461 57.2868 28.2382C57.3173 24.8305 56.635 21.4521 55.2811 18.307C53.9273 15.162 51.9299 12.3154 49.4096 9.93928C46.8894 7.56311 43.8984 5.70659 40.6174 4.4818C37.3364 3.25701 33.8334 2.68934 30.3198 2.81307H30.3173ZM30.3173 48.9109C28.1352 48.9175 25.9622 48.6378 23.8575 48.0793C22.8831 47.8249 21.8482 47.902 20.9254 48.2979L16.7235 50.0943L16.6131 46.5466C16.5891 45.9718 16.4463 45.4075 16.1932 44.8871C15.9401 44.3667 15.5819 43.9008 15.1398 43.517C12.934 41.5935 11.1782 39.2351 9.99008 36.5999C8.80194 33.9647 8.20895 31.1137 8.2509 28.2382C8.23544 25.4585 8.80116 22.7047 9.91393 20.1428C11.0267 17.5809 12.6634 15.2641 14.7254 13.3321C16.7873 11.4002 19.2318 9.89318 21.9111 8.90206C24.5905 7.91094 27.4492 7.45625 30.3149 7.56542C33.1766 7.47137 36.0286 7.93647 38.701 8.93304C41.3734 9.9296 43.8116 11.4372 45.8703 13.3662C47.9291 15.2951 49.5663 17.6059 50.6844 20.1609C51.8026 22.7159 52.3788 25.4628 52.3788 28.2382C52.3788 31.0135 51.8026 33.7605 50.6844 36.3155C49.5663 38.8705 47.9291 41.1812 45.8703 43.1102C43.8116 45.0391 41.3734 46.5467 38.701 47.5433C36.0286 48.5399 33.1766 49.005 30.3149 48.9109H30.3173ZM39.4738 20.8364L33.8034 27.3827L25.5981 22.4973C25.0974 22.1986 24.5024 22.0846 23.9221 22.1763C23.3418 22.2679 22.815 22.559 22.438 22.9963L14.9583 31.6361C14.7344 31.8725 14.5621 32.1503 14.4519 32.453C14.3418 32.7556 14.296 33.0767 14.3174 33.397C14.3388 33.7172 14.4269 34.03 14.5763 34.3163C14.7258 34.6027 14.9336 34.8567 15.1871 35.0631C15.4407 35.2695 15.7347 35.424 16.0516 35.5172C16.3684 35.6105 16.7014 35.6405 17.0305 35.6056C17.3597 35.5707 17.6781 35.4715 17.9666 35.3141C18.2551 35.1566 18.5077 34.9442 18.7092 34.6895L24.8356 27.6204L33.041 32.5058C33.5417 32.8045 34.1366 32.9185 34.7169 32.8268C35.2972 32.7352 35.824 32.4441 36.201 32.0068L43.2272 23.8921C43.4432 23.6545 43.6081 23.3773 43.7121 23.077C43.816 22.7767 43.857 22.4592 43.8325 22.1433C43.8081 21.8274 43.7187 21.5195 43.5696 21.2376C43.4206 20.9556 43.2149 20.7054 42.9646 20.5017C42.7144 20.298 42.4246 20.1448 42.1124 20.0511C41.8002 19.9575 41.4718 19.9254 41.1465 19.9565C40.8213 19.9877 40.5058 20.0816 40.2185 20.2327C39.9313 20.3838 39.6781 20.5891 39.4738 20.8364V20.8364Z" fill="#9747FF"/>
</svg>
