<svg width="56" height="59" viewBox="0 0 56 59" fill="none" xmlns="http://www.w3.org/2000/svg">
<path d="M53.1913 10.236C53.1913 9.80766 53.0835 9.38699 52.8791 9.01669C52.6747 8.6464 52.3808 8.33968 52.0274 8.1277C51.6739 7.91572 51.2735 7.80603 50.8668 7.80977C50.46 7.81351 50.0615 7.93055 49.7116 8.149C48.3622 8.99547 46.9092 9.64375 45.3931 10.0758C43.2291 8.12055 40.4692 7.05069 37.6178 7.06182C34.4901 7.06577 31.4862 8.34953 29.2404 10.642C26.9946 12.9345 25.6827 16.0564 25.5816 19.3484C19.4144 18.313 13.8249 14.9233 9.87906 9.82587C9.64131 9.52246 9.33781 9.28363 8.99413 9.12949C8.65045 8.97535 8.27663 8.9104 7.90414 8.94012C7.53174 8.97257 7.17244 9.1 6.85726 9.3114C6.54209 9.5228 6.28052 9.81182 6.09514 10.1535C5.1446 11.9005 4.59872 13.8589 4.50182 15.8698C4.40493 17.8806 4.75974 19.8872 5.53746 21.7266L5.53286 21.729C5.18254 21.9557 4.89344 22.2734 4.69328 22.6516C4.49312 23.0298 4.38864 23.4558 4.38984 23.8888C4.38615 24.245 4.40694 24.6011 4.45206 24.9541C4.6874 28.0071 5.97216 30.8648 8.06545 32.9915C7.92341 33.2767 7.83679 33.5888 7.81068 33.9096C7.78456 34.2305 7.81947 34.5536 7.91336 34.8601C8.82588 37.855 10.7669 40.3836 13.3565 41.951C10.7252 43.0222 7.88409 43.3956 5.08349 43.0382C4.56538 42.9703 4.04075 43.0897 3.59552 43.3769C3.15029 43.664 2.81084 44.1019 2.63279 44.6187C2.45473 45.1356 2.44861 45.7008 2.61543 46.2217C2.78225 46.7427 3.11212 47.1886 3.55102 47.4864C8.36782 50.7529 13.9761 52.4892 19.7053 52.4879C26.2021 52.5649 32.541 50.3788 37.7359 46.2696C42.9308 42.1604 46.6906 36.3585 48.4303 29.7664C49.2437 26.895 49.659 23.9149 49.6632 20.9185L49.6609 20.4331C50.8642 19.0664 51.7963 17.4605 52.4025 15.7094C53.0088 13.9584 53.2769 12.0976 53.1913 10.236V10.236ZM45.5728 18.0307C45.1918 18.5044 44.9987 19.1145 45.0336 19.7342C45.0566 20.1346 45.0543 20.5375 45.0543 20.9185C45.0494 23.45 44.697 25.9675 44.0081 28.3928C42.5878 34.0025 39.4208 38.948 35.0144 42.4371C30.6081 45.9263 25.2172 47.7573 19.7053 47.6368C17.726 47.6371 15.7537 47.392 13.8289 46.9064C16.2839 46.0727 18.5792 44.7877 20.6086 43.111C20.9828 42.8011 21.2568 42.3769 21.3927 41.8965C21.5287 41.4161 21.5201 40.9031 21.3681 40.4281C21.216 39.9531 20.928 39.5393 20.5436 39.2436C20.1592 38.9479 19.6973 38.7849 19.2213 38.7768C17.3057 38.7453 15.4765 37.9318 14.1193 36.5078C14.4634 36.4399 14.8052 36.3549 15.1447 36.253C15.6426 36.104 16.0783 35.7828 16.3816 35.3413C16.685 34.8997 16.8384 34.3635 16.8171 33.8189C16.7958 33.2744 16.6011 32.7532 16.2643 32.3394C15.9274 31.9257 15.4682 31.6433 14.9604 31.5379C13.8485 31.3066 12.8022 30.8083 11.9029 30.0819C11.0036 29.3554 10.2756 28.4203 9.77536 27.3493C10.1919 27.4093 10.6111 27.4465 11.0313 27.461C11.5306 27.4696 12.0196 27.3106 12.4273 27.0069C12.835 26.7032 13.1403 26.2706 13.2989 25.7719C13.4511 25.269 13.4434 24.7276 13.2771 24.2297C13.1108 23.7318 12.7948 23.3045 12.3771 23.0128C11.363 22.3019 10.5322 21.3372 9.95906 20.2051C9.38595 19.0731 9.08846 17.809 9.09324 16.5261C9.09324 16.3659 9.09785 16.2033 9.10707 16.0456C14.2724 21.119 20.9725 24.1097 28.0267 24.4906C28.3829 24.5049 28.7374 24.4336 29.0636 24.2823C29.3898 24.1309 29.679 23.9034 29.9094 23.617C30.1376 23.3288 30.2993 22.9888 30.3816 22.6238C30.464 22.2587 30.4649 21.8785 30.3841 21.513C30.2522 20.9335 30.1849 20.3398 30.1836 19.7439C30.1861 17.6684 30.9701 15.6787 32.3638 14.2111C33.7574 12.7435 35.6469 11.9179 37.6178 11.9153C38.6321 11.9121 39.636 12.1305 40.5661 12.5565C41.4963 12.9826 42.3324 13.607 43.0218 14.3906C43.2876 14.6918 43.6221 14.9164 43.9936 15.0429C44.3651 15.1695 44.7612 15.1939 45.1442 15.1137C46.0909 14.9199 47.024 14.6589 47.9372 14.3323C47.3145 15.6739 46.5189 16.9184 45.5728 18.0307V18.0307Z" fill="#9747FF"/>
</svg>
