<svg width="101" height="101" viewBox="0 0 101 101" fill="none" xmlns="http://www.w3.org/2000/svg">
<path d="M0.879883 77.9977V80.7952C2.26059 80.7952 3.37988 81.9145 3.37988 83.2952V87.9736C3.37988 88.6321 3.44496 89.2837 3.57152 89.9198C3.76872 90.9111 3.35039 91.882 2.58087 92.4368C3.51735 92.285 4.49968 92.6757 5.06118 93.516C5.42156 94.0554 5.83627 94.5621 6.30189 95.0277C6.76752 95.4933 7.27429 95.908 7.81366 96.2684C8.65412 96.8299 9.04483 97.8124 8.89291 98.749C9.44773 97.9792 10.4187 97.5608 11.4101 97.758C12.0463 97.8845 12.6979 97.9496 13.3564 97.9496H18.0351C19.4158 97.9496 20.5351 99.0689 20.5351 100.45H24.8925C24.8925 99.0689 26.0117 97.9496 27.3925 97.9496H36.7498C38.1306 97.9496 39.2498 99.0689 39.2498 100.45H43.6072C43.6072 99.0689 44.7265 97.9496 46.1072 97.9496H55.4646C56.8453 97.9496 57.9646 99.0689 57.9646 100.45H62.322C62.322 99.0689 63.4413 97.9496 64.822 97.9496H74.1794C75.5601 97.9496 76.6794 99.0689 76.6794 100.45H81.0367C81.0367 99.0689 82.156 97.9496 83.5367 97.9496H88.2154C88.8739 97.9496 89.5255 97.8845 90.1617 97.758C91.1531 97.5608 92.1241 97.9793 92.6789 98.749C92.527 97.8124 92.9177 96.8299 93.7582 96.2684C94.2975 95.908 94.8043 95.4933 95.2699 95.0277C95.7355 94.5621 96.1503 94.0554 96.5106 93.516C97.0721 92.6757 98.0545 92.285 98.9909 92.4368C98.2214 91.8819 97.8031 90.9111 98.0003 89.9198C98.1269 89.2837 98.1919 88.6321 98.1919 87.9736V83.2952C98.1919 81.9145 99.3112 80.7952 100.692 80.7952V76.4382C99.3112 76.4382 98.1919 75.3189 98.1919 73.9382V65.5217H96.0132C94.6325 65.5217 93.5132 64.4025 93.5132 63.0217H89.1559C89.1559 64.4025 88.0366 65.5217 86.6559 65.5217H77.2985C75.9178 65.5217 74.7985 64.4025 74.7985 63.0217H70.4411C70.4411 64.4025 69.3218 65.5217 67.9411 65.5217H67.3955C67.2787 65.8934 67.073 66.2431 66.7785 66.5377L70.395 70.154C71.3713 69.1777 72.9542 69.1777 73.9306 70.154L77.5066 73.7299C78.2217 74.4449 78.4356 75.5202 78.0486 76.4544C77.6617 77.3886 76.7501 77.9977 75.7389 77.9977H71.0602C69.6795 77.9977 68.5602 76.8784 68.5602 75.4977H64.2028C64.2028 76.8784 63.0836 77.9977 61.7028 77.9977H52.3455C50.9648 77.9977 49.8455 76.8784 49.8455 75.4977H45.4881C45.4881 76.8784 44.3688 77.9977 42.9881 77.9977H33.6307C32.25 77.9977 31.1307 76.8784 31.1307 75.4977H26.7733C26.7733 76.8784 25.654 77.9977 24.2733 77.9977H14.9159C13.5352 77.9977 12.4159 76.8784 12.4159 75.4977H8.05857C8.05857 76.8784 6.93928 77.9977 5.55857 77.9977H0.879883ZM6.22377 70.154L9.84031 66.5377C8.86402 65.5613 8.86406 63.9784 9.84039 63.0021L16.9925 55.8503C17.9689 54.874 19.5518 54.874 20.5281 55.8504L24.1446 52.234C23.1683 51.2576 23.1684 49.6747 24.1447 48.6984L27.7208 45.1225L27.7211 45.1223C28.4198 44.4238 29.1805 43.8013 29.9904 43.2604C31.1143 42.5097 32.6257 42.79 33.4083 43.8791C33.1918 42.5555 34.0625 41.2888 35.3882 41.0251C36.3434 40.8352 37.3214 40.7375 38.3094 40.7375C39.2974 40.7375 40.2754 40.8352 41.2306 41.0251C42.5563 41.2888 43.427 42.5555 43.2105 43.8791C43.9931 42.79 45.5045 42.5097 46.6284 43.2604C47.4383 43.8013 48.199 44.4238 48.8978 45.1223L48.898 45.1225L52.4741 48.6984C53.4504 49.6747 53.4505 51.2576 52.4742 52.234L56.0907 55.8504C57.067 54.874 58.6499 54.874 59.6263 55.8503L63.2624 59.4863L63.9682 58.7806C64.9445 57.8043 66.5274 57.8043 67.5037 58.7807L68.915 57.3694C67.9387 56.3931 67.9388 54.8101 68.9151 53.8339L71.3886 51.3605L71.3888 51.3602C72.0875 50.6618 72.8483 50.0393 73.6582 49.4984C74.7821 48.7476 76.2934 49.0279 77.0761 50.1171C76.8596 48.7935 77.7303 47.5268 79.056 47.2631C80.0111 47.0732 80.9892 46.9755 81.9772 46.9755C82.9651 46.9755 83.9432 47.0732 84.8984 47.2631C86.224 47.5268 87.0947 48.7935 86.8782 50.1171C87.6609 49.028 89.1723 48.7476 90.2962 49.4984C91.106 50.0393 91.8668 50.6618 92.5655 51.3602L92.5658 51.3605L95.0393 53.8339C96.0156 54.8101 96.0156 56.3931 95.0393 57.3694L96.4507 58.7807C97.4269 57.8043 99.0099 57.8043 99.9862 58.7806L100.692 59.4863V57.7243C99.3112 57.7243 98.1919 56.605 98.1919 55.2243V45.8673C98.1919 44.4866 99.3112 43.3673 100.692 43.3673V39.0103C99.3112 39.0103 98.1919 37.891 98.1919 36.5103V27.1534C98.1919 25.7727 99.3112 24.6534 100.692 24.6534V20.2964C99.3112 20.2964 98.1919 19.1771 98.1919 17.7964V13.1179C98.1919 12.4595 98.1269 11.8079 98.0003 11.1717C97.8031 10.1805 98.2214 9.20962 98.9909 8.65475C98.0545 8.80656 97.0721 8.41589 96.5106 7.57555C96.1503 7.03622 95.7355 6.5295 95.2699 6.0639C94.8043 5.59829 94.2975 5.18358 93.7582 4.82321C92.9177 4.26168 92.527 3.2792 92.6789 2.34262C92.1241 3.11232 91.1531 3.5308 90.1617 3.3336C89.5255 3.20704 88.8739 3.14197 88.2154 3.14197H83.5367C82.156 3.14197 81.0367 2.02268 81.0367 0.641968H76.6794C76.6794 2.02268 75.5601 3.14197 74.1794 3.14197H64.822C63.4413 3.14197 62.322 2.02268 62.322 0.641968H57.9646C57.9646 2.02268 56.8453 3.14197 55.4646 3.14197H46.1072C44.7265 3.14197 43.6072 2.02268 43.6072 0.641968H39.2498C39.2498 2.02268 38.1306 3.14197 36.7498 3.14197H27.3925C26.0117 3.14197 24.8925 2.02268 24.8925 0.641968H20.5351C20.5351 2.02268 19.4158 3.14197 18.0351 3.14197H13.3564C12.6979 3.14197 12.0463 3.20704 11.4101 3.3336C10.4187 3.5308 9.44774 3.11232 8.89292 2.34262C9.04483 3.2792 8.65412 4.26168 7.81366 4.82321C7.27429 5.18358 6.76753 5.59829 6.30189 6.0639C5.83627 6.5295 5.42156 7.03622 5.06118 7.57555C4.49968 8.41589 3.51735 8.80656 2.58087 8.65475C3.35038 9.20962 3.76872 10.1805 3.57152 11.1717C3.44496 11.8079 3.37988 12.4595 3.37988 13.1179V17.7964C3.37988 19.1771 2.26059 20.2964 0.879883 20.2964V24.6534C2.26059 24.6534 3.37988 25.7727 3.37988 27.1534V36.5103C3.37988 37.8911 2.26059 39.0103 0.879883 39.0103V43.3673C2.26059 43.3673 3.37988 44.4866 3.37988 45.8673V55.2243C3.37988 56.605 2.26059 57.7243 0.879883 57.7243V62.0812C2.26059 62.0812 3.37988 63.2005 3.37988 64.5812V69.6645C4.30885 69.2216 5.45458 69.3848 6.22377 70.154ZM63.2624 23.0939C61.8817 23.0939 60.7624 24.2132 60.7624 25.5939C60.7624 26.9746 61.8817 28.0939 63.2624 28.0939H63.278C63.2832 28.0939 63.2884 28.0939 63.2936 28.0938C63.2988 28.0939 63.304 28.0939 63.3092 28.0939H63.3248C64.7055 28.0939 65.8248 26.9746 65.8248 25.5939C65.8248 24.2132 64.7055 23.0939 63.3248 23.0939H63.3092C63.304 23.0939 63.2988 23.0939 63.2936 23.0939C63.2884 23.0939 63.2832 23.0939 63.278 23.0939H63.2624Z" stroke="#B5B5B5" stroke-width="5" stroke-linecap="round" stroke-linejoin="round" stroke-dasharray="10 10"/>
</svg>
